<svg id="svg" version="1.1" width="400" height="620.8333333333334" viewBox="0 0 400 620.8333333333334" xmlns="http://www.w3.org/2000/svg" xmlns:xlink="http://www.w3.org/1999/xlink" ><g id="svgg"><path id="path0" d="M176.279 11.358 C 175.762 11.874,175.094 12.905,174.794 13.648 C 174.494 14.392,173.583 15.768,172.769 16.706 C 171.201 18.513,171.183 18.566,170.185 24.272 C 169.592 27.664,169.594 28.183,170.205 31.072 C 171.697 38.119,171.339 39.224,167.947 38.042 C 166.279 37.460,152.804 37.462,150.646 38.044 C 148.928 38.507,147.143 39.240,146.800 39.622 C 146.474 39.985,142.973 41.541,141.844 41.825 C 141.270 41.969,140.800 42.247,140.800 42.443 C 140.800 42.640,140.565 42.800,140.278 42.800 C 139.793 42.800,139.077 43.382,135.545 46.641 C 132.727 49.241,130.685 51.798,129.016 54.815 C 128.065 56.534,126.916 58.338,126.463 58.824 C 126.010 59.310,125.524 60.269,125.383 60.954 C 124.933 63.142,123.458 67.366,122.783 68.400 C 121.893 69.764,121.704 70.320,120.346 75.581 C 119.696 78.100,119.030 80.350,118.865 80.581 C 118.287 81.393,117.650 83.835,117.190 87.000 C 116.935 88.760,116.562 90.955,116.363 91.877 C 116.163 92.800,116.000 94.150,116.000 94.877 C 116.000 96.387,115.028 101.307,114.591 102.015 C 114.150 102.729,113.556 111.877,113.262 122.472 C 112.985 132.470,112.791 133.408,110.780 134.434 C 107.398 136.160,103.971 137.600,103.244 137.600 C 102.057 137.600,100.835 138.282,99.540 139.667 C 98.956 140.290,98.254 140.800,97.979 140.800 C 97.083 140.800,93.029 142.947,91.822 144.061 C 91.174 144.659,90.184 145.385,89.622 145.674 C 89.060 145.963,88.420 146.344,88.200 146.519 C 87.980 146.694,86.810 147.552,85.600 148.425 C 81.986 151.033,75.859 156.684,74.800 158.385 C 74.470 158.915,73.545 160.080,72.745 160.974 C 71.945 161.868,70.797 163.500,70.195 164.600 C 69.592 165.700,68.791 166.960,68.414 167.400 C 67.693 168.243,66.470 170.783,65.573 173.300 C 65.280 174.125,64.912 174.800,64.757 174.800 C 63.724 174.800,62.135 185.471,62.551 189.617 C 62.693 191.038,62.921 193.698,63.057 195.528 L 63.303 198.856 61.152 200.860 C 59.968 201.962,58.304 203.434,57.453 204.132 C 56.602 204.829,55.170 206.075,54.270 206.900 C 53.371 207.725,52.438 208.400,52.197 208.400 C 51.955 208.400,50.764 209.345,49.550 210.500 C 48.336 211.655,46.226 213.590,44.861 214.800 C 43.497 216.010,41.950 217.727,41.424 218.615 C 40.897 219.503,40.010 220.474,39.451 220.773 C 38.893 221.071,38.134 221.965,37.766 222.758 C 37.397 223.551,36.515 224.920,35.805 225.800 C 35.096 226.680,33.914 228.480,33.178 229.800 C 32.442 231.120,31.357 232.830,30.766 233.600 C 30.175 234.370,29.599 235.450,29.485 236.000 C 28.863 239.028,27.902 241.705,26.802 243.474 C 23.858 248.210,23.819 270.113,26.746 275.126 C 27.896 277.097,28.368 278.248,29.237 281.200 C 29.811 283.151,30.273 283.985,32.405 286.922 C 33.172 287.979,34.171 289.959,34.626 291.322 L 35.451 293.800 32.026 297.414 C 27.885 301.781,25.590 304.498,24.840 305.919 C 24.532 306.503,23.671 307.615,22.927 308.391 C 22.183 309.166,21.014 310.961,20.329 312.379 C 19.644 313.798,18.758 315.308,18.359 315.736 C 17.616 316.533,16.000 319.700,16.000 320.359 C 16.000 320.561,15.387 321.868,14.639 323.263 C 13.321 325.719,12.966 326.753,11.985 331.000 C 11.521 333.010,10.999 334.715,10.393 336.200 C 9.395 338.642,9.200 340.326,9.200 346.483 C 9.200 353.050,9.519 355.715,10.603 358.200 C 11.091 359.320,11.636 361.421,12.834 366.800 C 13.344 369.090,14.702 371.844,18.160 377.600 C 19.283 379.470,20.459 381.497,20.772 382.105 C 21.085 382.713,22.029 383.772,22.870 384.457 C 23.712 385.143,24.400 385.913,24.400 386.169 C 24.400 387.160,36.286 398.656,39.818 401.081 C 40.524 401.566,41.574 402.768,42.151 403.753 C 42.728 404.738,43.458 405.801,43.772 406.115 C 44.449 406.792,46.000 411.339,46.000 412.647 C 46.000 413.795,47.067 417.943,47.518 418.548 C 47.704 418.796,48.089 419.810,48.374 420.800 C 48.659 421.790,49.039 423.050,49.217 423.600 C 49.395 424.150,49.751 425.590,50.007 426.800 C 50.805 430.571,51.266 432.145,52.057 433.800 C 52.797 435.350,53.432 437.590,55.288 445.200 C 55.530 446.190,56.215 447.990,56.812 449.200 C 57.466 450.526,58.008 452.458,58.176 454.062 C 58.493 457.080,59.131 459.415,60.401 462.202 C 61.276 464.122,61.836 466.093,62.788 470.600 C 63.066 471.920,63.708 474.170,64.214 475.600 C 65.067 478.008,65.378 479.005,66.369 482.500 C 66.571 483.215,66.950 484.880,67.211 486.200 C 67.714 488.752,68.391 490.871,68.808 491.200 C 69.146 491.467,70.204 494.889,70.756 497.500 C 71.919 502.999,72.180 503.944,73.097 505.961 C 74.275 508.553,75.028 511.107,75.396 513.762 C 75.545 514.841,76.108 516.687,76.646 517.863 C 77.184 519.040,77.791 520.767,77.995 521.701 C 78.199 522.636,78.484 523.940,78.629 524.600 C 79.424 528.224,80.924 533.579,81.484 534.794 C 82.304 536.573,82.836 538.595,84.170 545.000 C 84.536 546.760,85.278 549.072,85.818 550.137 C 86.358 551.202,86.805 552.372,86.811 552.737 C 86.832 554.074,88.709 561.054,89.531 562.855 C 90.705 565.423,91.481 567.877,91.792 570.000 C 92.124 572.267,92.671 574.157,93.587 576.200 C 94.319 577.835,96.800 587.384,96.800 588.568 C 96.800 588.928,97.401 590.523,98.135 592.111 C 98.870 593.700,99.708 595.763,99.997 596.695 C 100.686 598.909,103.298 600.379,108.389 601.419 C 109.153 601.575,110.795 602.220,112.039 602.851 C 113.282 603.483,114.727 604.003,115.249 604.007 C 115.772 604.011,117.460 604.346,119.000 604.753 C 120.540 605.160,122.970 605.788,124.400 606.150 C 125.830 606.511,127.540 606.975,128.200 607.180 C 128.860 607.385,130.570 607.757,132.000 608.008 C 135.999 608.709,141.939 609.941,144.600 610.622 C 147.882 611.461,154.547 612.295,162.200 612.824 C 165.720 613.067,170.040 613.439,171.800 613.651 C 173.560 613.864,178.150 614.119,182.000 614.219 C 185.850 614.319,190.006 614.599,191.235 614.841 C 192.524 615.095,195.148 615.185,197.435 615.052 C 199.616 614.926,204.910 614.644,209.200 614.425 C 213.490 614.206,218.620 613.840,220.600 613.613 C 227.953 612.768,232.297 612.427,235.840 612.413 C 237.842 612.406,240.002 612.239,240.640 612.042 C 247.544 609.911,251.264 609.140,260.200 607.990 C 263.777 607.530,265.911 606.971,271.538 605.019 C 273.154 604.459,274.991 604.000,275.619 604.000 C 276.866 604.000,278.440 603.414,280.000 602.369 C 280.550 602.001,281.630 601.571,282.400 601.413 C 289.482 599.964,290.959 599.041,292.196 595.291 C 292.611 594.031,293.426 591.920,294.005 590.600 C 294.585 589.280,295.292 587.120,295.576 585.800 C 295.860 584.480,296.236 582.860,296.412 582.200 C 296.588 581.540,296.848 580.280,296.989 579.400 C 297.130 578.520,297.776 576.686,298.423 575.325 C 299.070 573.964,299.600 572.545,299.600 572.172 C 299.600 571.798,299.764 570.842,299.965 570.046 C 300.166 569.251,300.539 567.610,300.795 566.400 C 301.259 564.198,301.773 562.501,302.431 561.000 C 303.099 559.475,303.907 556.587,304.388 554.000 C 304.871 551.401,305.229 550.305,306.229 548.371 C 307.121 546.647,307.902 543.916,308.166 541.600 C 308.597 537.818,309.309 535.471,310.655 533.393 C 311.627 531.892,312.059 530.631,312.369 528.393 C 313.071 523.326,314.283 518.487,315.159 517.257 C 315.619 516.612,316.185 515.120,316.419 513.942 C 317.675 507.593,317.823 507.032,318.987 504.200 C 319.831 502.145,320.308 500.669,320.762 498.700 C 321.003 497.655,321.397 495.945,321.637 494.900 C 322.088 492.941,322.263 492.438,323.367 489.923 C 323.997 488.487,324.272 487.418,325.402 482.000 C 326.195 478.195,326.368 477.647,327.642 474.925 C 328.279 473.564,328.800 472.145,328.800 471.772 C 328.800 471.398,328.972 470.442,329.182 469.646 C 329.392 468.851,329.872 466.850,330.248 465.200 C 330.624 463.550,331.225 461.660,331.584 461.000 C 332.432 459.442,333.061 457.309,333.765 453.600 C 334.079 451.950,334.824 449.250,335.420 447.600 C 336.017 445.950,337.002 442.595,337.610 440.144 C 338.218 437.693,339.164 434.633,339.712 433.344 C 340.848 430.673,341.415 428.748,341.995 425.600 C 342.886 420.770,343.213 419.519,344.113 417.501 C 344.628 416.346,345.285 414.590,345.572 413.600 C 345.859 412.610,346.252 411.278,346.447 410.640 C 346.641 410.002,346.801 409.012,346.802 408.440 C 346.803 407.868,347.253 406.514,347.802 405.432 C 348.351 404.350,348.800 403.232,348.800 402.947 C 348.800 402.229,353.565 397.200,354.246 397.200 C 354.551 397.200,354.800 397.034,354.800 396.832 C 354.800 396.629,355.345 396.344,356.010 396.198 C 356.701 396.046,357.687 395.340,358.310 394.552 C 358.910 393.792,360.260 392.615,361.312 391.936 C 362.363 391.257,363.443 390.392,363.712 390.014 C 363.980 389.636,364.972 388.842,365.915 388.249 C 366.859 387.656,367.814 386.769,368.037 386.278 C 368.261 385.787,369.023 384.989,369.730 384.504 C 370.437 384.020,372.002 382.512,373.208 381.155 C 374.414 379.797,376.123 377.947,377.006 377.043 C 377.890 376.139,379.135 374.507,379.773 373.415 C 380.411 372.324,381.378 370.986,381.921 370.442 C 382.465 369.899,383.236 368.716,383.635 367.815 C 384.033 366.913,384.865 365.461,385.482 364.588 C 386.818 362.699,387.333 361.608,388.029 359.200 C 388.315 358.210,388.873 356.926,389.269 356.346 C 390.494 354.553,391.491 351.858,391.772 349.580 C 392.076 347.121,392.590 344.680,393.664 340.608 C 394.470 337.552,394.653 331.650,394.017 329.246 C 393.123 325.866,392.029 320.865,391.802 319.118 C 391.540 317.107,390.794 315.336,389.395 313.400 C 388.918 312.740,388.289 311.570,387.997 310.800 C 387.705 310.030,386.893 308.680,386.192 307.800 C 385.491 306.920,384.623 305.628,384.263 304.928 C 383.903 304.229,382.707 302.626,381.604 301.366 C 380.502 300.106,379.600 298.834,379.600 298.538 C 379.600 298.242,379.420 298.000,379.200 298.000 C 378.980 298.000,378.800 297.733,378.800 297.406 C 378.800 297.079,378.080 296.335,377.200 295.753 C 376.320 295.170,375.600 294.534,375.600 294.339 C 375.600 293.828,369.817 288.173,368.498 287.394 C 367.887 287.034,367.013 286.167,366.555 285.469 C 366.098 284.771,365.200 283.932,364.562 283.604 C 363.923 283.276,362.655 282.286,361.745 281.404 C 360.835 280.522,359.156 279.298,358.015 278.683 C 354.088 276.570,353.313 271.984,356.143 267.600 C 357.288 265.826,357.901 264.228,358.215 262.200 C 358.352 261.320,358.790 259.520,359.190 258.200 C 360.142 255.061,360.591 246.711,360.007 243.000 C 358.600 234.042,357.751 230.827,356.521 229.800 C 355.956 229.328,354.000 225.481,354.000 224.842 C 354.000 224.599,353.820 224.400,353.600 224.400 C 353.380 224.400,353.200 224.158,353.200 223.862 C 353.200 223.566,352.818 222.981,352.352 222.562 C 351.886 222.143,350.916 220.884,350.198 219.764 C 349.479 218.644,348.241 217.095,347.446 216.323 C 346.651 215.551,346.000 214.729,346.000 214.497 C 346.000 214.265,345.094 213.424,343.988 212.629 C 342.881 211.834,341.772 210.737,341.523 210.192 C 341.275 209.646,340.910 209.200,340.712 209.200 C 340.513 209.200,339.210 208.030,337.815 206.600 C 336.419 205.170,335.099 204.000,334.880 204.000 C 334.662 204.000,333.966 203.411,333.334 202.691 C 332.276 201.487,328.381 198.800,327.693 198.800 C 327.530 198.800,326.890 198.263,326.271 197.606 C 325.651 196.950,324.392 196.079,323.472 195.671 C 322.552 195.262,321.170 194.312,320.400 193.559 C 319.630 192.806,318.010 191.844,316.800 191.420 C 315.590 190.997,314.062 190.148,313.403 189.534 C 312.745 188.919,311.755 188.251,311.203 188.049 C 304.511 185.592,303.290 184.224,302.768 178.600 C 302.472 175.412,302.228 174.179,301.065 170.000 C 300.205 166.908,299.385 165.081,298.256 163.739 C 297.720 163.103,296.892 161.834,296.416 160.921 C 295.940 160.007,294.959 158.751,294.237 158.130 C 293.515 157.508,292.467 156.280,291.908 155.400 C 290.740 153.562,287.731 150.695,286.066 149.834 C 285.442 149.511,284.447 148.613,283.856 147.838 C 283.265 147.063,282.110 146.115,281.291 145.733 C 280.471 145.350,279.350 144.539,278.800 143.931 C 278.250 143.323,276.552 142.179,275.027 141.390 C 273.502 140.600,271.972 139.641,271.627 139.257 C 270.843 138.386,262.401 134.219,260.062 133.548 C 257.633 132.853,257.185 129.778,258.768 124.657 C 260.405 119.357,260.494 118.729,260.294 113.868 C 260.184 111.191,259.901 108.460,259.666 107.800 C 259.431 107.140,258.943 105.160,258.581 103.400 C 257.728 99.255,257.051 97.803,254.970 95.662 C 254.031 94.696,253.145 93.433,252.999 92.855 C 252.639 91.418,252.059 90.802,251.051 90.787 C 249.071 90.758,248.629 89.698,250.477 89.409 C 251.425 89.262,252.963 88.794,253.896 88.370 C 254.828 87.947,255.908 87.598,256.296 87.596 C 257.317 87.591,262.318 83.717,263.334 82.145 C 263.810 81.407,264.510 80.702,264.889 80.578 C 266.509 80.049,268.324 77.227,268.465 75.017 C 268.615 72.656,268.009 71.978,264.670 70.771 C 263.828 70.466,262.568 69.707,261.870 69.082 C 261.171 68.458,259.473 67.409,258.096 66.751 C 256.718 66.093,255.188 65.160,254.696 64.677 C 253.720 63.720,252.380 63.049,249.600 62.127 C 248.610 61.799,247.170 61.034,246.400 60.428 C 243.475 58.126,232.718 57.323,224.200 58.772 C 221.199 59.282,220.261 59.618,216.834 61.410 C 213.325 63.245,209.311 61.380,212.075 59.200 C 212.773 58.650,214.153 57.447,215.142 56.527 C 216.132 55.606,217.716 54.455,218.663 53.967 C 219.611 53.480,220.637 52.698,220.945 52.229 C 221.252 51.759,222.342 50.944,223.366 50.418 C 224.390 49.891,225.721 48.988,226.324 48.412 C 226.927 47.836,228.570 46.935,229.975 46.409 C 231.381 45.884,233.266 44.895,234.165 44.212 C 236.252 42.627,237.579 42.102,240.800 41.585 C 242.230 41.356,244.300 40.982,245.400 40.755 C 249.800 39.847,256.103 40.945,259.800 43.264 C 263.861 45.811,264.381 46.060,265.139 45.819 C 268.851 44.641,269.160 38.457,265.654 35.524 C 261.460 32.013,242.315 31.937,235.000 35.402 C 233.460 36.131,231.327 37.045,230.261 37.433 C 229.194 37.821,227.145 39.007,225.706 40.069 C 224.268 41.131,222.909 42.000,222.687 42.000 C 221.992 42.000,218.739 44.804,215.200 48.454 C 209.351 54.486,208.524 55.482,208.256 56.821 C 207.901 58.596,207.313 59.200,205.938 59.200 C 204.234 59.200,203.987 60.305,205.433 61.462 C 206.075 61.976,206.887 62.397,207.238 62.398 C 208.152 62.401,209.200 63.699,209.201 64.831 C 209.202 65.364,209.562 66.389,210.001 67.110 C 211.044 68.819,211.016 69.014,209.647 69.581 C 209.013 69.843,208.009 70.565,207.416 71.183 C 206.007 72.654,205.066 72.378,204.040 70.196 C 203.423 68.883,202.893 68.361,201.816 68.005 C 199.758 67.326,199.200 66.280,199.200 63.105 C 199.200 60.102,198.913 60.429,202.941 58.832 L 204.082 58.380 203.882 51.890 C 203.671 45.064,203.013 39.260,202.378 38.620 C 202.170 38.411,202.000 37.884,202.000 37.448 C 202.000 37.013,201.821 36.104,201.603 35.428 C 201.384 34.753,200.955 33.397,200.648 32.416 C 199.548 28.892,193.572 22.484,185.727 16.418 C 184.587 15.536,183.336 14.277,182.948 13.620 C 182.560 12.963,182.053 12.348,181.821 12.255 C 181.590 12.161,180.459 11.710,179.309 11.252 L 177.218 10.419 176.279 11.358 M173.891 39.500 C 175.052 41.301,175.744 42.000,176.363 42.000 C 177.155 42.000,178.797 43.588,178.813 44.370 C 178.833 45.369,179.708 46.267,181.314 46.938 C 182.915 47.607,183.126 48.032,182.228 48.777 C 181.501 49.380,177.993 48.781,175.435 47.616 C 174.450 47.167,173.229 46.794,172.722 46.787 C 170.630 46.758,169.684 44.204,170.772 41.519 C 170.977 41.013,171.251 40.105,171.380 39.500 C 171.691 38.047,172.954 38.047,173.891 39.500 M168.500 47.056 C 168.885 47.165,169.200 47.392,169.200 47.560 C 169.200 47.942,164.483 50.400,163.751 50.400 C 163.457 50.400,163.094 50.895,162.946 51.500 C 161.806 56.167,158.800 58.163,158.800 54.254 C 158.800 51.762,159.873 50.000,161.390 50.000 C 162.075 50.000,162.438 49.667,162.759 48.745 C 163.536 46.516,165.031 46.076,168.500 47.056 M149.073 52.100 C 150.492 54.315,150.661 56.567,149.544 58.400 C 146.346 63.647,141.200 63.860,141.200 58.745 C 141.200 55.700,142.030 54.473,144.931 53.230 C 145.910 52.810,146.832 52.271,146.980 52.033 C 147.344 51.443,148.680 51.486,149.073 52.100 M157.206 58.924 C 157.213 60.481,158.043 62.942,159.345 65.263 L 160.318 67.000 163.259 67.251 C 166.960 67.566,169.043 68.513,169.343 70.016 C 169.639 71.496,173.163 72.118,181.200 72.107 C 189.316 72.096,190.869 73.758,183.522 74.593 C 181.378 74.837,181.219 74.930,180.802 76.193 C 180.301 77.711,179.278 78.505,176.906 79.216 C 175.716 79.572,175.071 80.073,174.545 81.049 C 174.038 81.991,173.340 82.553,172.211 82.928 C 170.687 83.435,170.585 83.571,170.323 85.432 C 169.559 90.861,169.506 92.622,170.008 95.852 C 170.545 99.303,170.317 101.163,169.317 101.495 C 166.890 102.301,166.744 84.336,169.161 82.400 C 173.550 78.886,173.713 74.974,169.531 73.516 C 168.841 73.276,168.400 72.834,168.400 72.384 C 168.400 71.239,165.721 70.454,158.528 69.491 C 153.783 68.855,153.218 67.462,155.004 60.800 C 156.014 57.036,157.193 56.031,157.206 58.924 M195.874 68.444 L 197.000 68.888 195.400 69.460 C 194.241 69.874,193.552 69.920,192.900 69.625 C 191.339 68.918,191.852 68.333,194.274 68.054 C 194.535 68.025,195.255 68.200,195.874 68.444 M215.537 73.654 C 214.634 74.342,214.587 74.340,214.249 73.606 C 213.590 72.179,214.218 71.462,215.430 72.256 L 216.474 72.941 215.537 73.654 M136.326 76.910 C 136.857 77.550,135.822 81.019,134.740 82.226 C 134.333 82.680,134.000 83.265,134.000 83.526 C 134.000 83.787,133.820 84.000,133.600 84.000 C 133.380 84.000,133.200 84.213,133.200 84.474 C 133.200 85.794,131.473 86.800,129.210 86.800 C 126.356 86.800,126.000 86.417,126.000 83.343 L 126.000 80.847 128.400 79.000 C 129.720 77.984,130.800 76.984,130.800 76.777 C 130.800 76.192,135.831 76.314,136.326 76.910 M158.495 80.290 C 159.865 80.894,160.027 81.105,159.805 81.990 C 159.666 82.545,159.446 83.535,159.317 84.189 C 158.258 89.564,151.560 92.812,150.440 88.493 C 149.522 84.957,149.381 85.259,153.795 81.300 C 155.922 79.393,156.284 79.315,158.495 80.290 M233.707 84.962 C 234.487 85.492,235.459 86.259,235.867 86.667 C 236.870 87.670,240.760 88.748,245.753 89.407 C 249.647 89.921,247.204 90.817,240.754 91.240 C 233.007 91.749,232.800 91.869,232.800 95.858 C 232.800 98.851,230.976 101.678,230.256 99.801 C 230.129 99.472,230.134 96.907,230.266 94.101 C 230.489 89.383,230.440 88.859,229.619 87.120 C 228.190 84.096,230.575 82.837,233.707 84.962 M204.400 90.543 C 207.024 91.151,208.149 92.771,207.651 95.221 L 207.370 96.600 204.649 96.719 C 201.683 96.849,200.996 96.539,200.689 94.933 C 200.542 94.164,201.814 89.894,202.153 90.017 C 202.179 90.026,203.190 90.263,204.400 90.543 M200.000 97.659 C 200.000 97.911,199.370 98.886,198.600 99.826 C 197.830 100.766,197.200 101.701,197.200 101.904 C 197.200 102.457,193.803 104.098,192.990 103.938 C 190.356 103.421,192.324 100.406,195.300 100.402 C 196.619 100.400,196.800 100.283,196.800 99.433 C 196.800 97.696,197.209 97.200,198.643 97.200 C 199.397 97.200,200.000 97.404,200.000 97.659 M211.120 97.680 C 211.768 98.328,211.725 99.398,211.028 99.977 C 210.465 100.444,208.000 98.460,208.000 97.541 C 208.000 97.020,210.575 97.135,211.120 97.680 M133.395 100.967 C 135.592 101.732,135.791 102.219,135.010 104.907 C 133.826 108.978,128.624 112.880,126.610 111.208 C 125.121 109.972,124.802 105.982,126.100 104.829 C 126.595 104.390,127.881 103.213,128.958 102.215 C 131.138 100.195,131.158 100.189,133.395 100.967 M229.600 101.578 C 229.600 101.742,229.341 102.400,229.025 103.039 C 228.708 103.677,228.264 104.691,228.038 105.290 C 227.792 105.943,227.023 106.666,226.124 107.090 C 224.958 107.641,224.473 108.204,223.959 109.600 L 223.296 111.400 220.920 111.517 C 218.478 111.638,217.600 110.979,217.600 109.027 C 217.600 108.732,217.331 107.976,217.002 107.346 C 216.128 105.673,217.062 105.069,220.000 105.404 C 224.997 105.975,225.064 105.954,225.760 103.609 C 226.554 100.936,227.090 100.403,228.495 100.893 C 229.103 101.105,229.600 101.413,229.600 101.578 M215.309 101.763 C 215.880 102.197,215.940 102.505,215.619 103.351 C 215.115 104.676,214.939 104.665,213.553 103.214 C 212.037 101.627,213.517 100.404,215.309 101.763 M173.822 103.500 C 174.185 104.325,174.661 105.381,174.880 105.847 C 175.455 107.069,175.137 108.108,174.017 108.666 C 171.978 109.683,169.909 103.592,171.900 102.432 C 172.971 101.808,173.113 101.887,173.822 103.500 M191.120 104.480 C 192.663 106.023,190.712 108.085,187.866 107.920 C 185.292 107.771,185.000 106.709,187.200 105.498 C 187.970 105.074,188.771 104.563,188.980 104.363 C 189.512 103.854,190.551 103.911,191.120 104.480 M153.022 107.804 C 153.370 110.128,153.082 111.121,151.609 112.678 C 150.944 113.381,150.400 114.133,150.400 114.349 C 150.400 115.407,148.254 116.400,145.969 116.400 C 143.041 116.400,142.341 115.660,142.838 113.090 C 143.018 112.161,143.173 111.267,143.183 111.103 C 143.237 110.180,146.142 108.152,149.200 106.904 C 152.827 105.424,152.659 105.384,153.022 107.804 M246.212 106.967 C 247.806 108.607,248.572 111.199,247.635 111.778 C 247.434 111.903,247.151 112.706,247.006 113.564 C 246.269 117.930,243.680 118.924,240.434 116.088 L 239.068 114.894 239.934 113.052 C 240.410 112.038,240.800 110.937,240.800 110.604 C 240.800 110.272,240.980 110.000,241.200 110.000 C 241.420 110.000,241.600 109.743,241.600 109.429 C 241.600 109.114,241.842 108.616,242.137 108.320 C 242.432 108.025,242.889 107.381,243.153 106.888 C 243.655 105.950,245.264 105.991,246.212 106.967 M203.581 108.172 C 205.465 110.911,204.059 116.800,201.522 116.800 C 201.335 116.800,200.477 117.267,199.615 117.838 C 197.767 119.061,197.649 119.015,196.453 116.621 L 195.536 114.784 196.307 112.301 C 197.007 110.050,197.253 109.722,198.946 108.791 C 199.973 108.226,201.125 107.472,201.506 107.116 C 201.888 106.759,202.236 106.452,202.281 106.434 C 202.325 106.415,202.910 107.197,203.581 108.172 M182.500 109.849 C 185.282 110.061,186.973 110.800,184.675 110.800 C 183.444 110.800,182.024 112.178,181.728 113.660 C 181.207 116.264,176.060 114.205,175.383 111.123 C 175.015 109.445,175.447 109.095,177.546 109.370 C 178.566 109.503,180.795 109.719,182.500 109.849 M170.546 116.202 C 171.176 116.531,171.875 116.800,172.099 116.800 C 173.672 116.800,174.232 119.425,172.936 120.721 C 172.629 121.028,172.121 121.893,171.808 122.642 C 170.674 125.357,169.111 126.249,166.674 125.572 C 163.364 124.653,163.078 123.442,165.313 119.800 C 167.786 115.768,168.617 115.197,170.546 116.202 M128.700 122.711 C 131.956 125.217,128.990 131.769,123.944 133.216 C 119.983 134.352,119.492 126.653,123.400 124.681 C 124.060 124.348,125.140 123.609,125.800 123.038 C 127.208 121.821,127.501 121.788,128.700 122.711 M211.216 126.219 C 212.342 127.576,210.923 135.600,209.557 135.600 C 209.392 135.600,208.985 135.872,208.652 136.205 C 204.600 140.257,202.064 132.068,205.708 126.700 C 206.600 125.386,210.259 125.066,211.216 126.219 M240.964 129.231 C 243.054 131.713,242.097 137.824,239.413 139.144 C 236.822 140.419,235.314 140.247,234.626 138.600 C 233.346 135.537,234.103 133.371,237.730 129.718 C 239.745 127.689,239.676 127.699,240.964 129.231 M149.326 131.260 C 151.307 132.302,151.940 134.887,150.628 136.577 C 147.487 140.623,144.989 142.149,143.120 141.165 C 141.771 140.454,141.613 140.054,141.606 137.327 C 141.599 134.616,141.921 134.205,145.245 132.678 C 146.040 132.313,146.917 131.741,147.194 131.407 C 147.798 130.679,148.174 130.653,149.326 131.260 M189.153 135.043 C 190.238 135.269,190.163 138.611,189.026 140.755 C 188.721 141.330,188.251 142.390,187.983 143.110 C 186.941 145.906,182.193 146.953,180.637 144.731 C 179.627 143.289,181.799 137.711,183.700 136.867 C 183.865 136.793,184.000 136.544,184.000 136.314 C 184.000 134.879,186.004 134.384,189.153 135.043 M258.756 137.273 C 260.294 138.066,261.530 139.040,262.033 139.853 C 262.477 140.572,263.470 141.549,264.241 142.025 C 265.011 142.501,265.934 143.365,266.291 143.945 C 266.649 144.525,267.610 145.720,268.427 146.600 C 273.036 151.564,275.837 160.877,274.099 165.456 C 273.860 166.085,273.560 167.082,273.432 167.672 C 273.304 168.262,272.974 168.982,272.699 169.272 C 272.425 169.562,272.006 170.250,271.769 170.800 C 270.829 172.983,269.405 175.739,269.001 176.158 C 268.766 176.401,268.132 177.230,267.593 178.000 C 267.053 178.770,266.339 179.760,266.006 180.200 C 264.992 181.540,261.516 184.794,259.400 186.387 C 258.300 187.215,256.690 188.546,255.822 189.346 C 254.954 190.146,254.104 190.800,253.933 190.800 C 253.215 190.800,249.308 192.881,248.200 193.853 C 247.540 194.433,245.830 195.459,244.400 196.135 C 242.970 196.811,241.483 197.657,241.095 198.016 C 240.708 198.374,239.088 199.095,237.495 199.618 C 235.014 200.432,232.027 201.802,230.600 202.781 C 230.074 203.142,227.540 203.855,224.800 204.413 C 222.133 204.956,220.527 205.524,219.200 206.397 C 217.982 207.198,215.673 207.865,213.000 208.187 C 208.482 208.732,205.570 209.376,203.000 210.399 C 193.443 214.205,147.987 214.013,136.000 210.116 C 134.152 209.515,133.185 209.312,127.037 208.240 C 125.046 207.892,122.135 207.019,120.437 206.259 C 118.767 205.511,116.152 204.499,114.626 204.008 C 113.100 203.518,111.210 202.726,110.426 202.249 C 108.681 201.188,107.539 200.656,105.194 199.812 C 104.200 199.455,102.670 198.487,101.794 197.662 C 100.917 196.836,99.570 195.912,98.800 195.608 C 97.526 195.104,95.200 193.029,95.200 192.396 C 95.200 192.252,94.735 191.886,94.167 191.582 C 93.599 191.278,92.690 190.273,92.148 189.348 C 91.607 188.423,90.586 187.222,89.882 186.679 C 88.873 185.902,88.399 185.021,87.659 182.546 C 87.141 180.816,86.570 178.950,86.391 178.400 C 84.420 172.368,84.394 173.114,86.859 164.800 C 87.088 164.030,87.373 162.771,87.492 162.002 C 87.740 160.415,88.507 159.059,89.990 157.587 C 90.552 157.029,91.442 155.589,91.968 154.387 C 92.614 152.910,93.457 151.808,94.562 150.993 C 95.463 150.328,96.447 149.228,96.748 148.548 C 97.091 147.774,97.854 147.066,98.785 146.655 C 99.603 146.294,100.819 145.413,101.485 144.699 C 103.481 142.560,104.927 141.607,107.099 140.998 C 107.651 140.844,108.085 140.333,108.223 139.673 C 108.839 136.733,109.753 136.371,112.329 138.048 C 114.574 139.510,114.767 139.907,115.596 144.800 C 116.886 152.408,117.468 154.811,118.666 157.474 C 119.180 158.615,119.599 159.695,119.598 159.874 C 119.593 160.608,122.213 166.652,122.821 167.309 C 123.181 167.699,123.999 169.029,124.638 170.265 C 125.277 171.501,126.436 173.162,127.214 173.956 C 127.991 174.750,129.112 176.058,129.705 176.862 C 130.298 177.666,131.462 178.743,132.291 179.256 C 133.121 179.768,134.289 180.653,134.886 181.223 C 136.004 182.291,138.343 183.549,140.800 184.406 C 141.570 184.674,142.740 185.116,143.400 185.387 C 146.119 186.504,147.146 186.782,150.154 187.216 C 154.441 187.835,166.078 187.080,169.898 185.935 C 171.384 185.490,173.230 184.985,174.000 184.813 C 174.770 184.641,175.670 184.406,176.000 184.292 C 176.330 184.177,177.950 183.852,179.600 183.571 C 182.570 183.063,184.650 182.301,187.030 180.846 C 187.707 180.433,188.877 179.968,189.630 179.814 C 192.132 179.303,193.776 178.620,196.162 177.103 C 197.461 176.276,198.824 175.600,199.191 175.600 C 200.595 175.600,203.590 174.296,204.765 173.173 C 205.440 172.528,206.089 172.000,206.207 172.000 C 206.624 172.000,212.184 169.149,212.391 168.830 C 212.506 168.652,213.950 167.873,215.600 167.098 C 217.250 166.324,219.050 165.255,219.600 164.723 C 220.150 164.191,221.629 163.252,222.886 162.638 C 224.143 162.023,225.271 161.208,225.392 160.826 C 225.513 160.444,226.491 159.720,227.564 159.217 C 228.637 158.714,230.089 157.695,230.790 156.951 C 231.491 156.208,232.304 155.600,232.597 155.600 C 232.890 155.600,234.126 154.655,235.345 153.500 C 238.167 150.825,238.685 150.400,239.124 150.400 C 239.436 150.400,240.735 149.217,242.281 147.526 C 242.862 146.891,243.581 146.348,244.622 145.761 C 245.050 145.520,245.853 144.660,246.407 143.850 C 246.960 143.041,247.891 142.065,248.475 141.682 C 249.059 141.299,250.136 140.101,250.868 139.020 C 251.879 137.527,252.585 136.937,253.800 136.569 C 256.080 135.878,256.039 135.872,258.756 137.273 M224.576 143.020 C 226.911 146.584,223.375 154.000,219.340 154.000 C 215.374 154.000,216.050 144.871,220.166 142.859 C 223.061 141.444,223.555 141.462,224.576 143.020 M165.797 142.872 C 168.285 145.036,164.147 154.000,160.660 154.000 C 155.534 154.000,157.153 144.010,162.519 142.539 C 164.815 141.910,164.674 141.896,165.797 142.872 M137.014 150.978 C 138.025 151.988,138.020 152.308,136.959 154.600 C 136.228 156.178,135.787 156.675,133.309 158.713 L 131.225 160.427 129.612 158.765 C 127.717 156.812,127.689 156.588,129.003 153.994 C 130.082 151.865,131.266 150.874,133.310 150.388 C 135.467 149.876,135.997 149.960,137.014 150.978 M198.240 158.306 C 200.034 159.504,199.951 164.181,198.100 166.221 C 197.711 166.650,197.087 167.478,196.712 168.063 C 194.976 170.770,192.303 170.520,191.752 167.600 C 191.606 166.830,191.335 165.901,191.149 165.536 C 190.936 165.118,191.030 164.451,191.403 163.736 C 191.728 163.111,191.996 162.355,191.998 162.054 C 192.006 160.252,193.723 158.439,195.563 158.291 C 196.573 158.210,197.490 158.115,197.600 158.078 C 197.710 158.042,197.998 158.144,198.240 158.306 M174.558 163.720 C 176.224 164.938,175.901 172.724,174.107 174.576 C 173.130 175.585,169.148 175.135,168.316 173.921 C 167.668 172.977,168.322 168.908,169.394 167.210 C 169.947 166.333,170.400 165.489,170.400 165.334 C 170.400 163.852,173.234 162.752,174.558 163.720 M153.406 166.100 C 154.978 169.619,153.960 172.833,150.592 174.988 C 147.867 176.731,147.670 176.726,146.271 174.885 C 145.370 173.701,145.197 173.157,145.416 172.200 C 145.566 171.540,145.804 170.459,145.945 169.798 C 146.330 167.983,147.214 166.986,149.310 166.000 C 150.355 165.509,151.309 164.948,151.429 164.754 C 151.915 163.966,152.687 164.492,153.406 166.100 M305.242 193.900 C 308.885 197.269,312.121 200.722,312.755 201.915 C 313.060 202.490,313.839 203.510,314.487 204.180 C 315.134 204.851,316.287 206.744,317.049 208.387 C 317.810 210.029,318.581 211.469,318.761 211.587 C 321.554 213.406,321.407 229.513,318.561 233.400 C 318.078 234.060,317.274 235.804,316.774 237.277 C 316.273 238.749,315.343 240.549,314.707 241.277 C 314.071 242.004,312.997 243.680,312.320 245.000 C 310.891 247.785,304.717 254.057,299.422 258.100 C 298.774 258.595,297.514 259.651,296.622 260.446 C 295.730 261.242,294.370 262.212,293.600 262.602 C 292.830 262.992,291.624 263.812,290.920 264.425 C 290.217 265.038,288.495 266.087,287.094 266.755 C 285.693 267.424,283.859 268.517,283.018 269.185 C 282.178 269.853,281.333 270.400,281.141 270.400 C 280.521 270.400,277.048 272.112,275.361 273.249 C 274.460 273.857,273.200 274.480,272.561 274.634 C 271.229 274.956,267.898 276.425,267.600 276.822 C 267.053 277.551,262.981 279.173,260.200 279.770 C 259.540 279.911,257.830 280.583,256.400 281.263 C 252.939 282.907,252.591 283.032,249.800 283.633 C 248.480 283.917,246.140 284.682,244.600 285.334 C 241.535 286.629,240.810 286.834,235.200 287.988 C 233.110 288.417,230.351 289.142,229.069 289.599 C 226.968 290.347,223.329 290.946,214.400 292.013 C 208.753 292.687,205.397 293.167,200.400 294.015 C 188.962 295.956,153.930 295.709,144.800 293.623 C 142.115 293.009,137.846 292.384,133.800 292.011 C 126.530 291.342,123.154 290.729,120.684 289.631 C 119.318 289.024,116.850 288.311,115.200 288.046 C 110.041 287.219,108.298 286.722,105.060 285.156 C 103.332 284.320,101.082 283.528,100.059 283.395 C 98.165 283.149,94.400 281.684,94.400 281.192 C 94.400 280.892,92.264 279.972,89.800 279.210 C 88.920 278.938,87.566 278.219,86.792 277.613 C 85.143 276.321,82.270 274.800,81.480 274.800 C 81.176 274.800,80.070 273.990,79.022 273.000 C 77.974 272.010,76.931 271.200,76.706 271.200 C 76.329 271.200,73.796 269.494,71.545 267.725 C 70.276 266.728,67.717 264.113,65.800 261.854 C 64.920 260.817,64.000 259.744,63.755 259.469 C 63.235 258.883,60.131 253.881,59.332 252.341 C 59.029 251.758,58.405 249.778,57.945 247.941 C 57.484 246.103,56.979 244.420,56.821 244.200 C 55.198 241.936,55.366 239.482,58.035 226.458 C 58.370 224.819,60.554 220.037,61.166 219.600 C 61.320 219.490,62.014 218.211,62.708 216.757 C 63.885 214.290,68.147 209.200,69.035 209.200 C 69.242 209.200,69.846 209.904,70.377 210.763 C 70.909 211.623,71.712 212.568,72.163 212.863 C 72.613 213.159,73.436 213.911,73.991 214.535 C 76.372 217.214,79.072 219.699,81.228 221.195 C 81.982 221.719,83.276 222.744,84.101 223.474 C 84.927 224.203,85.784 224.800,86.006 224.800 C 86.962 224.800,90.303 226.671,91.470 227.859 C 92.169 228.571,93.471 229.350,94.365 229.590 C 95.258 229.831,96.454 230.459,97.022 230.985 C 97.590 231.512,99.078 232.254,100.328 232.634 C 101.577 233.014,102.771 233.477,102.980 233.663 C 103.189 233.848,103.589 234.000,103.870 234.000 C 104.150 234.000,105.590 234.554,107.069 235.231 C 110.033 236.589,111.892 237.220,115.200 237.992 C 116.410 238.274,118.570 239.037,120.000 239.686 C 121.430 240.335,123.590 241.024,124.800 241.215 C 126.010 241.407,127.990 241.755,129.200 241.989 C 130.410 242.223,132.570 242.582,134.000 242.787 C 135.430 242.993,137.230 243.338,138.000 243.554 C 143.191 245.012,144.620 245.198,159.800 246.396 C 175.621 247.643,207.779 246.198,213.400 243.987 C 215.740 243.067,219.820 242.253,225.400 241.596 C 227.795 241.313,230.202 240.761,231.400 240.218 C 233.913 239.081,237.547 237.864,240.400 237.205 C 241.610 236.926,243.752 236.164,245.160 235.513 C 246.568 234.861,248.818 233.978,250.160 233.550 C 251.502 233.122,253.230 232.369,254.000 231.878 C 255.832 230.709,256.958 230.207,259.480 229.434 C 261.803 228.722,264.400 227.311,264.400 226.760 C 264.400 226.562,264.638 226.400,264.929 226.400 C 265.667 226.400,270.151 224.192,270.867 223.476 C 271.191 223.151,272.344 222.435,273.428 221.883 C 274.513 221.331,275.850 220.482,276.400 219.997 C 277.654 218.892,280.660 216.800,280.996 216.800 C 281.134 216.800,282.061 216.035,283.056 215.100 C 284.050 214.165,285.278 213.147,285.783 212.837 C 286.288 212.528,286.994 211.779,287.352 211.173 C 287.710 210.568,288.902 209.319,290.001 208.399 C 291.101 207.479,292.000 206.537,292.000 206.307 C 292.000 206.078,292.721 205.108,293.602 204.152 C 294.483 203.196,295.813 201.161,296.559 199.629 C 297.304 198.097,298.294 196.311,298.757 195.660 C 299.221 195.009,299.600 194.295,299.600 194.074 C 299.600 193.613,301.885 191.600,302.408 191.600 C 302.598 191.600,303.874 192.635,305.242 193.900 M345.781 291.311 C 346.341 292.437,346.801 293.547,346.802 293.779 C 346.803 294.010,347.268 295.100,347.836 296.200 C 349.274 298.984,349.486 309.678,348.149 312.000 C 347.242 313.575,346.005 317.175,345.991 318.275 C 345.978 319.393,344.548 322.291,343.208 323.917 C 342.544 324.723,341.994 325.566,341.986 325.791 C 341.940 327.188,339.316 331.098,336.525 333.929 C 335.588 334.880,334.258 336.369,333.571 337.237 C 330.877 340.638,321.774 348.780,319.260 350.038 C 318.677 350.329,317.390 351.133,316.400 351.825 C 315.410 352.516,313.520 353.663,312.200 354.374 C 310.880 355.085,309.350 356.074,308.800 356.573 C 308.250 357.072,306.990 357.789,306.000 358.167 C 305.010 358.544,303.030 359.621,301.600 360.560 C 300.170 361.498,297.972 362.674,296.716 363.173 C 295.459 363.672,294.222 364.332,293.967 364.640 C 293.711 364.948,293.200 365.200,292.831 365.200 C 292.462 365.200,291.989 365.349,291.780 365.530 C 291.571 365.712,290.590 366.109,289.600 366.412 C 288.610 366.715,287.170 367.312,286.400 367.740 C 283.418 369.394,281.323 370.306,279.400 370.787 C 277.182 371.341,274.917 372.256,274.000 372.968 C 273.298 373.512,269.931 374.570,266.800 375.230 C 265.590 375.484,263.520 376.190,262.200 376.798 C 259.244 378.159,254.536 379.360,250.400 379.809 C 248.158 380.053,246.885 380.414,244.406 381.510 C 242.377 382.408,240.861 382.725,234.400 383.604 C 228.416 384.419,223.285 385.250,219.800 385.970 C 212.523 387.473,176.683 388.971,171.555 387.986 C 170.370 387.759,166.160 387.580,162.200 387.590 C 154.870 387.607,149.536 387.190,143.800 386.152 C 142.040 385.834,138.530 385.223,136.000 384.796 C 133.470 384.368,130.399 383.834,129.176 383.609 C 127.953 383.384,126.153 383.194,125.176 383.186 C 123.128 383.169,119.561 382.378,117.572 381.500 C 115.192 380.449,113.894 380.071,110.400 379.413 C 106.701 378.716,105.341 378.300,103.200 377.207 C 102.430 376.814,100.450 376.093,98.800 375.605 C 94.183 374.238,93.614 374.028,90.400 372.493 C 88.750 371.705,87.087 370.911,86.705 370.730 C 86.323 370.548,85.832 370.400,85.613 370.400 C 85.394 370.400,84.267 369.795,83.108 369.055 C 80.859 367.620,77.675 366.000,77.103 366.000 C 76.913 366.000,76.181 365.460,75.478 364.799 C 74.775 364.138,73.840 363.497,73.400 363.373 C 71.646 362.880,69.089 361.383,68.206 360.334 C 67.692 359.724,66.482 358.783,65.517 358.244 C 63.680 357.219,58.000 351.928,58.000 351.242 C 58.000 351.024,57.472 350.533,56.827 350.152 C 56.181 349.771,55.237 348.650,54.729 347.661 C 54.220 346.672,53.292 345.219,52.666 344.432 C 48.259 338.887,46.000 331.558,46.000 322.800 C 46.000 313.188,46.881 309.903,49.844 308.463 C 52.245 307.297,52.240 307.296,55.387 309.804 C 56.908 311.016,59.288 312.561,60.676 313.237 C 62.064 313.913,63.200 314.614,63.200 314.795 C 63.200 314.976,64.415 315.724,65.900 316.457 C 67.385 317.190,69.500 318.346,70.600 319.024 C 71.700 319.703,73.680 320.682,75.000 321.199 C 76.320 321.717,78.120 322.626,79.000 323.218 C 79.880 323.811,81.230 324.424,82.000 324.580 C 84.187 325.025,88.098 326.439,89.200 327.184 C 90.894 328.329,92.656 328.847,100.317 330.447 C 101.702 330.736,103.142 331.253,103.517 331.597 C 104.257 332.273,106.148 332.903,109.600 333.625 C 110.810 333.877,112.610 334.328,113.600 334.625 C 115.439 335.178,117.493 335.583,122.800 336.440 C 124.450 336.707,126.970 337.178,128.400 337.486 C 129.830 337.795,132.350 338.219,134.000 338.429 C 137.197 338.836,138.833 339.129,143.600 340.153 C 156.891 343.008,220.743 342.605,228.200 339.620 C 228.640 339.444,229.503 339.097,230.119 338.850 C 230.734 338.602,232.025 338.400,232.988 338.400 C 233.951 338.400,235.608 338.231,236.669 338.024 C 237.731 337.818,239.860 337.447,241.400 337.200 C 245.341 336.569,248.132 335.947,248.600 335.594 C 249.313 335.056,257.799 333.200,259.543 333.200 C 260.281 333.200,261.991 332.681,263.343 332.047 C 266.160 330.724,267.358 330.346,271.800 329.374 C 273.560 328.989,275.675 328.343,276.500 327.937 C 277.325 327.532,278.675 326.862,279.500 326.449 C 280.325 326.037,282.260 325.395,283.800 325.024 C 285.340 324.652,287.467 323.820,288.527 323.174 C 289.586 322.528,290.624 322.000,290.832 322.000 C 291.040 322.000,291.523 321.838,291.905 321.639 C 292.287 321.440,293.360 321.053,294.290 320.778 C 295.219 320.504,296.310 319.971,296.714 319.594 C 297.478 318.883,299.195 318.044,301.600 317.207 C 303.794 316.443,304.868 315.912,306.732 314.671 C 307.684 314.037,309.334 313.212,310.398 312.837 C 312.023 312.265,315.286 310.369,316.000 309.582 C 316.110 309.461,317.100 308.842,318.200 308.207 C 319.300 307.572,320.438 306.816,320.728 306.526 C 321.019 306.237,322.099 305.517,323.128 304.925 C 324.933 303.888,329.706 300.649,330.668 299.809 C 330.925 299.584,332.170 298.500,333.435 297.400 C 334.700 296.300,336.560 294.673,337.568 293.785 C 338.575 292.897,340.030 291.701,340.800 291.128 C 341.570 290.556,342.560 289.730,343.000 289.294 C 344.001 288.302,344.439 288.620,345.781 291.311 M315.372 419.315 C 316.516 420.459,316.979 422.686,316.490 424.692 C 316.234 425.742,315.830 427.770,315.592 429.200 C 315.354 430.630,314.908 432.348,314.600 433.017 C 313.909 434.521,313.360 436.893,312.797 440.800 C 312.060 445.917,311.023 450.468,310.380 451.400 C 309.952 452.021,308.639 458.589,308.181 462.400 C 307.869 465.000,307.180 467.699,305.986 471.000 C 305.508 472.320,304.790 475.689,304.390 478.488 C 303.990 481.286,303.555 483.749,303.424 483.961 C 303.293 484.173,303.021 485.124,302.819 486.073 C 302.617 487.023,302.250 488.520,302.003 489.400 C 300.966 493.102,300.779 494.007,300.188 498.200 C 299.392 503.851,298.850 506.007,297.978 507.000 C 296.800 508.341,295.993 511.923,295.545 517.800 C 295.310 520.880,294.957 523.571,294.759 523.780 C 294.562 523.989,294.400 524.538,294.400 525.000 C 294.400 525.462,294.251 526.011,294.070 526.220 C 293.402 526.988,292.539 530.649,291.766 536.000 C 291.464 538.090,291.041 540.520,290.827 541.400 C 289.802 545.604,289.623 546.307,289.201 547.800 C 288.289 551.028,287.628 554.233,287.614 555.494 C 287.596 557.127,287.045 559.440,285.346 565.017 C 284.606 567.446,284.000 569.932,284.000 570.540 C 284.000 571.148,283.834 572.400,283.631 573.323 C 283.428 574.245,283.038 576.350,282.764 578.000 C 282.490 579.650,281.876 581.900,281.399 583.000 C 280.923 584.100,280.407 586.070,280.254 587.378 C 280.100 588.686,279.514 590.782,278.952 592.036 C 277.798 594.607,278.159 594.442,269.844 596.199 C 264.903 597.243,262.181 594.226,264.792 590.600 C 265.277 589.927,265.935 585.906,267.215 575.800 C 267.642 572.429,268.018 570.546,269.450 564.600 C 270.167 561.625,270.760 558.085,271.026 555.200 C 271.369 551.483,272.629 545.042,273.608 542.000 C 274.359 539.669,274.995 535.740,275.420 530.800 C 275.563 529.150,275.945 526.720,276.269 525.400 C 276.593 524.080,277.018 522.280,277.213 521.400 C 277.408 520.520,277.763 519.170,278.002 518.400 C 278.241 517.630,278.612 515.470,278.827 513.600 C 279.042 511.730,279.388 509.030,279.596 507.600 C 279.804 506.170,280.170 503.303,280.409 501.228 C 280.710 498.615,281.053 497.263,281.525 496.828 C 282.801 495.651,283.155 494.202,283.583 488.400 C 284.037 482.253,284.637 478.483,285.938 473.600 C 286.378 471.950,286.951 468.710,287.211 466.400 C 287.471 464.090,287.951 460.850,288.278 459.200 C 288.605 457.550,289.022 455.300,289.205 454.200 C 289.388 453.100,289.745 451.480,289.999 450.600 C 290.877 447.556,292.075 440.065,292.675 433.864 C 293.061 429.879,296.150 425.394,298.790 424.983 C 301.124 424.621,303.193 423.900,304.062 423.147 C 304.897 422.422,306.769 421.678,310.000 420.786 C 312.481 420.101,314.000 419.462,314.000 419.102 C 314.000 418.625,314.807 418.750,315.372 419.315 M78.972 423.155 C 79.093 423.350,79.868 423.636,80.696 423.790 C 81.523 423.945,82.380 424.203,82.600 424.364 C 82.820 424.524,83.810 424.889,84.800 425.175 C 97.299 428.778,98.968 430.251,100.014 438.600 C 100.755 444.514,101.429 447.925,102.365 450.490 C 102.824 451.750,103.201 453.550,103.202 454.490 C 103.203 455.431,103.363 456.830,103.557 457.600 C 103.751 458.370,104.134 460.620,104.409 462.600 C 104.939 466.420,105.372 468.422,106.918 474.200 C 107.447 476.180,108.096 479.690,108.359 482.000 C 109.156 489.004,109.521 491.334,110.116 493.208 C 111.121 496.373,111.534 498.134,111.993 501.200 C 112.240 502.850,112.600 505.100,112.793 506.200 C 112.985 507.300,113.349 509.460,113.601 511.000 C 113.853 512.540,114.497 515.240,115.031 517.000 C 115.566 518.760,116.002 520.848,116.002 521.640 C 116.001 522.432,116.162 523.602,116.360 524.240 C 116.558 524.878,116.934 527.020,117.196 529.000 C 117.457 530.980,117.943 533.680,118.276 535.000 C 119.239 538.818,119.994 542.410,120.379 545.000 C 120.575 546.320,121.032 549.470,121.395 552.000 C 121.964 555.967,122.597 558.678,124.009 563.200 C 124.181 563.750,124.516 565.730,124.753 567.600 C 125.822 576.007,126.477 579.804,127.305 582.400 C 129.550 589.440,129.637 597.827,127.467 598.047 C 126.628 598.133,125.804 597.927,125.587 597.578 C 125.356 597.205,121.052 596.000,119.954 596.000 C 116.493 596.000,112.488 588.584,112.392 582.000 C 112.366 580.200,111.524 576.774,110.448 574.087 C 109.532 571.801,108.619 567.617,108.202 563.800 C 107.934 561.345,107.208 558.771,106.249 556.869 C 105.953 556.281,105.604 555.080,105.474 554.200 C 105.344 553.320,104.960 551.340,104.619 549.800 C 104.279 548.260,104.000 546.386,104.000 545.635 C 104.000 544.884,103.381 542.454,102.625 540.235 C 101.869 538.016,101.048 534.940,100.800 533.400 C 99.997 528.398,99.524 526.265,98.361 522.400 C 97.288 518.839,96.722 516.100,95.550 508.800 C 95.286 507.150,94.760 505.080,94.382 504.200 C 92.942 500.847,92.375 498.637,91.611 493.400 C 90.831 488.049,90.455 486.470,89.431 484.230 C 88.864 482.990,88.400 481.611,88.400 481.165 C 88.400 480.719,88.234 479.600,88.031 478.677 C 87.828 477.755,87.445 475.650,87.180 474.000 C 86.679 470.886,85.947 467.888,84.933 464.800 C 84.241 462.696,83.771 460.399,82.988 455.301 C 82.676 453.267,82.048 450.837,81.593 449.901 C 81.138 448.966,80.661 447.390,80.533 446.400 C 80.405 445.410,80.028 443.610,79.695 442.400 C 79.362 441.190,78.965 439.030,78.812 437.600 C 78.530 434.960,78.402 434.490,77.288 432.000 C 75.568 428.156,75.766 422.800,77.628 422.800 C 78.247 422.800,78.851 422.960,78.972 423.155 M269.773 434.770 C 270.654 435.743,270.453 442.938,269.416 447.600 C 268.078 453.610,267.033 461.451,266.402 470.200 C 265.925 476.816,265.248 481.523,264.726 481.846 C 263.858 482.382,263.200 485.104,263.203 488.149 C 263.204 489.937,263.031 492.750,262.818 494.400 C 262.605 496.050,262.235 499.200,261.994 501.400 C 261.588 505.119,261.286 506.825,260.404 510.400 C 259.593 513.686,259.184 516.605,258.611 523.200 C 257.890 531.499,257.399 535.085,256.395 539.400 C 255.579 542.909,255.041 546.676,254.397 553.400 C 254.165 555.820,253.808 558.970,253.604 560.400 C 253.400 561.830,253.118 564.170,252.978 565.600 C 252.838 567.030,252.401 569.460,252.007 571.000 C 251.277 573.852,250.771 577.627,249.972 586.200 C 249.725 588.840,249.361 591.522,249.162 592.160 C 248.963 592.798,248.800 594.001,248.800 594.834 C 248.800 599.874,244.841 602.697,236.944 603.288 C 233.496 603.546,232.848 600.508,234.023 589.600 C 234.248 587.510,234.607 584.090,234.821 582.000 C 235.034 579.910,235.476 576.670,235.804 574.800 C 236.442 571.157,236.977 565.685,237.603 556.400 C 238.302 546.019,239.065 538.811,239.994 533.800 C 240.692 530.037,241.133 525.376,241.794 514.800 C 242.499 503.521,242.982 498.078,243.606 494.400 C 245.060 485.827,245.106 482.217,243.795 479.352 C 242.732 477.029,243.096 473.762,244.582 472.275 C 246.309 470.548,246.683 468.772,246.926 461.141 C 247.118 455.136,247.323 453.209,247.982 451.254 C 248.432 449.918,248.800 448.345,248.800 447.758 C 248.800 440.706,250.413 437.464,254.144 437.017 C 256.553 436.728,259.467 436.075,260.600 435.568 C 264.431 433.857,268.617 433.493,269.773 434.770 M126.400 436.597 C 127.610 436.737,129.590 437.011,130.800 437.206 C 132.010 437.401,134.440 437.759,136.200 438.001 C 141.442 438.723,142.771 440.022,142.808 444.462 C 142.812 444.978,143.091 446.840,143.428 448.600 C 144.599 454.718,145.874 467.008,146.808 481.200 C 147.048 484.830,147.520 489.150,147.859 490.800 C 148.967 496.193,149.606 501.911,150.405 513.600 C 150.853 520.159,151.465 525.914,152.000 528.600 C 152.219 529.700,152.673 532.940,153.009 535.800 C 153.589 540.738,153.866 543.905,154.809 556.400 C 155.213 561.758,155.567 564.569,156.370 568.800 C 157.094 572.613,157.944 581.118,158.409 589.200 C 158.656 593.490,158.954 598.185,159.071 599.634 L 159.285 602.269 157.905 602.923 C 156.755 603.469,156.131 603.509,154.162 603.161 C 152.863 602.932,150.998 602.639,150.017 602.511 C 147.181 602.139,145.639 599.987,145.180 595.757 C 145.034 594.413,144.612 592.705,144.241 591.962 C 143.870 591.219,143.390 589.259,143.175 587.605 C 142.959 585.952,142.614 583.430,142.407 582.000 C 142.201 580.570,141.916 577.690,141.774 575.600 C 141.456 570.946,140.612 564.753,140.001 562.600 C 138.675 557.927,138.233 555.239,137.631 548.200 C 137.168 542.780,136.944 541.216,135.941 536.400 C 134.794 530.889,134.132 526.763,133.631 522.000 C 133.388 519.690,132.992 515.910,132.752 513.600 C 132.511 511.290,131.982 508.230,131.576 506.800 C 130.859 504.273,130.385 501.225,129.556 493.800 C 128.464 484.029,128.103 481.502,127.183 477.200 C 126.036 471.838,126.085 472.190,124.784 459.800 C 124.164 453.895,123.608 450.295,123.243 449.821 C 123.065 449.589,122.713 448.275,122.460 446.900 C 122.207 445.525,121.803 443.355,121.562 442.077 C 121.049 439.361,122.247 435.795,123.549 436.160 C 123.907 436.260,125.190 436.457,126.400 436.597 M183.053 442.871 C 185.121 443.880,185.032 443.168,185.598 463.200 C 185.832 471.450,186.197 482.538,186.411 487.840 C 186.625 493.142,186.796 501.602,186.791 506.640 C 186.787 511.678,186.968 524.890,187.195 536.000 C 188.249 587.652,188.399 602.011,187.893 602.895 C 186.476 605.369,185.930 605.600,181.488 605.600 C 175.366 605.600,174.857 604.874,174.352 595.429 C 174.163 591.893,173.814 587.650,173.576 586.000 C 172.808 580.679,171.746 566.682,171.209 554.800 C 170.108 530.444,169.343 517.754,168.933 517.092 C 168.767 516.823,168.494 514.622,168.326 512.201 C 168.039 508.057,167.815 503.888,166.814 484.000 C 165.715 462.190,165.253 455.177,164.421 447.719 C 164.037 444.276,164.132 442.824,164.743 442.782 C 164.884 442.773,165.900 442.515,167.000 442.209 C 170.107 441.346,180.834 441.788,183.053 442.871 M226.445 442.623 C 227.995 443.425,228.084 443.713,227.316 445.458 C 226.811 446.605,226.622 448.281,226.575 452.003 C 226.540 454.755,226.302 459.705,226.045 463.003 C 225.788 466.301,225.396 474.670,225.173 481.600 C 224.515 502.052,224.131 508.416,222.808 520.800 C 222.240 526.116,221.698 534.872,221.200 546.800 C 220.965 552.410,220.597 559.970,220.382 563.600 C 220.166 567.230,219.810 574.070,219.591 578.800 C 219.372 583.530,219.014 588.264,218.796 589.320 C 218.578 590.376,218.396 592.356,218.392 593.720 C 218.380 597.487,217.423 602.682,216.554 603.702 C 215.045 605.472,214.710 605.574,210.355 605.587 C 205.582 605.602,204.288 604.944,203.782 602.247 C 203.275 599.543,205.311 478.719,206.322 451.514 C 206.619 443.505,206.637 443.443,208.882 442.290 C 210.399 441.510,224.823 441.784,226.445 442.623 " stroke="none" fill="#252224" fill-rule="evenodd"></path><path id="path1" d="M0.000 310.400 L 0.000 620.800 200.000 620.800 L 400.000 620.800 400.000 310.400 L 400.000 0.000 200.000 0.000 L 0.000 0.000 0.000 310.400 M181.821 12.255 C 182.053 12.348,182.560 12.963,182.948 13.620 C 183.336 14.277,184.587 15.536,185.727 16.418 C 193.572 22.484,199.548 28.892,200.648 32.416 C 200.955 33.397,201.384 34.753,201.603 35.428 C 201.821 36.104,202.000 37.013,202.000 37.448 C 202.000 37.884,202.170 38.411,202.378 38.620 C 203.013 39.260,203.671 45.064,203.882 51.890 L 204.082 58.380 202.941 58.832 C 198.913 60.429,199.200 60.102,199.200 63.105 C 199.200 66.280,199.758 67.326,201.816 68.005 C 202.893 68.361,203.423 68.883,204.040 70.196 C 205.066 72.378,206.007 72.654,207.416 71.183 C 208.009 70.565,209.013 69.843,209.647 69.581 C 211.016 69.014,211.044 68.819,210.001 67.110 C 209.562 66.389,209.202 65.364,209.201 64.831 C 209.200 63.699,208.152 62.401,207.238 62.398 C 206.887 62.397,206.075 61.976,205.433 61.462 C 203.987 60.305,204.234 59.200,205.938 59.200 C 207.313 59.200,207.901 58.596,208.256 56.821 C 208.524 55.482,209.351 54.486,215.200 48.454 C 218.739 44.804,221.992 42.000,222.687 42.000 C 222.909 42.000,224.268 41.131,225.706 40.069 C 227.145 39.007,229.194 37.821,230.261 37.433 C 231.327 37.045,233.460 36.131,235.000 35.402 C 242.315 31.937,261.460 32.013,265.654 35.524 C 269.160 38.457,268.851 44.641,265.139 45.819 C 264.381 46.060,263.861 45.811,259.800 43.264 C 256.103 40.945,249.800 39.847,245.400 40.755 C 244.300 40.982,242.230 41.356,240.800 41.585 C 237.579 42.102,236.252 42.627,234.165 44.212 C 233.266 44.895,231.381 45.884,229.975 46.409 C 228.570 46.935,226.927 47.836,226.324 48.412 C 225.721 48.988,224.390 49.891,223.366 50.418 C 222.342 50.944,221.252 51.759,220.945 52.229 C 220.637 52.698,219.611 53.480,218.663 53.967 C 217.716 54.455,216.132 55.606,215.142 56.527 C 214.153 57.447,212.773 58.650,212.075 59.200 C 209.311 61.380,213.325 63.245,216.834 61.410 C 220.261 59.618,221.199 59.282,224.200 58.772 C 232.718 57.323,243.475 58.126,246.400 60.428 C 247.170 61.034,248.610 61.799,249.600 62.127 C 252.380 63.049,253.720 63.720,254.696 64.677 C 255.188 65.160,256.718 66.093,258.096 66.751 C 259.473 67.409,261.171 68.458,261.870 69.082 C 262.568 69.707,263.828 70.466,264.670 70.771 C 268.009 71.978,268.615 72.656,268.465 75.017 C 268.324 77.227,266.509 80.049,264.889 80.578 C 264.510 80.702,263.810 81.407,263.334 82.145 C 262.318 83.717,257.317 87.591,256.296 87.596 C 255.908 87.598,254.828 87.947,253.896 88.370 C 252.963 88.794,251.425 89.262,250.477 89.409 C 248.629 89.698,249.071 90.758,251.051 90.787 C 252.059 90.802,252.639 91.418,252.999 92.855 C 253.145 93.433,254.031 94.696,254.970 95.662 C 257.051 97.803,257.728 99.255,258.581 103.400 C 258.943 105.160,259.431 107.140,259.666 107.800 C 259.901 108.460,260.184 111.191,260.294 113.868 C 260.494 118.729,260.405 119.357,258.768 124.657 C 257.185 129.778,257.633 132.853,260.062 133.548 C 262.401 134.219,270.843 138.386,271.627 139.257 C 271.972 139.641,273.502 140.600,275.027 141.390 C 276.552 142.179,278.250 143.323,278.800 143.931 C 279.350 144.539,280.471 145.350,281.291 145.733 C 282.110 146.115,283.265 147.063,283.856 147.838 C 284.447 148.613,285.442 149.511,286.066 149.834 C 287.731 150.695,290.740 153.562,291.908 155.400 C 292.467 156.280,293.515 157.508,294.237 158.130 C 294.959 158.751,295.940 160.007,296.416 160.921 C 296.892 161.834,297.720 163.103,298.256 163.739 C 299.385 165.081,300.205 166.908,301.065 170.000 C 302.228 174.179,302.472 175.412,302.768 178.600 C 303.290 184.224,304.511 185.592,311.203 188.049 C 311.755 188.251,312.745 188.919,313.403 189.534 C 314.062 190.148,315.590 190.997,316.800 191.420 C 318.010 191.844,319.630 192.806,320.400 193.559 C 321.170 194.312,322.552 195.262,323.472 195.671 C 324.392 196.079,325.651 196.950,326.271 197.606 C 326.890 198.263,327.530 198.800,327.693 198.800 C 328.381 198.800,332.276 201.487,333.334 202.691 C 333.966 203.411,334.662 204.000,334.880 204.000 C 335.099 204.000,336.419 205.170,337.815 206.600 C 339.210 208.030,340.513 209.200,340.712 209.200 C 340.910 209.200,341.275 209.646,341.523 210.192 C 341.772 210.737,342.881 211.834,343.988 212.629 C 345.094 213.424,346.000 214.265,346.000 214.497 C 346.000 214.729,346.651 215.551,347.446 216.323 C 348.241 217.095,349.479 218.644,350.198 219.764 C 350.916 220.884,351.886 222.143,352.352 222.562 C 352.818 222.981,353.200 223.566,353.200 223.862 C 353.200 224.158,353.380 224.400,353.600 224.400 C 353.820 224.400,354.000 224.599,354.000 224.842 C 354.000 225.481,355.956 229.328,356.521 229.800 C 357.751 230.827,358.600 234.042,360.007 243.000 C 360.591 246.711,360.142 255.061,359.190 258.200 C 358.790 259.520,358.352 261.320,358.215 262.200 C 357.901 264.228,357.288 265.826,356.143 267.600 C 353.313 271.984,354.088 276.570,358.015 278.683 C 359.156 279.298,360.835 280.522,361.745 281.404 C 362.655 282.286,363.923 283.276,364.562 283.604 C 365.200 283.932,366.098 284.771,366.555 285.469 C 367.013 286.167,367.887 287.034,368.498 287.394 C 369.817 288.173,375.600 293.828,375.600 294.339 C 375.600 294.534,376.320 295.170,377.200 295.753 C 378.080 296.335,378.800 297.079,378.800 297.406 C 378.800 297.733,378.980 298.000,379.200 298.000 C 379.420 298.000,379.600 298.242,379.600 298.538 C 379.600 298.834,380.502 300.106,381.604 301.366 C 382.707 302.626,383.903 304.229,384.263 304.928 C 384.623 305.628,385.491 306.920,386.192 307.800 C 386.893 308.680,387.705 310.030,387.997 310.800 C 388.289 311.570,388.918 312.740,389.395 313.400 C 390.794 315.336,391.540 317.107,391.802 319.118 C 392.029 320.865,393.123 325.866,394.017 329.246 C 394.653 331.650,394.470 337.552,393.664 340.608 C 392.590 344.680,392.076 347.121,391.772 349.580 C 391.491 351.858,390.494 354.553,389.269 356.346 C 388.873 356.926,388.315 358.210,388.029 359.200 C 387.333 361.608,386.818 362.699,385.482 364.588 C 384.865 365.461,384.033 366.913,383.635 367.815 C 383.236 368.716,382.465 369.899,381.921 370.442 C 381.378 370.986,380.411 372.324,379.773 373.415 C 379.135 374.507,377.890 376.139,377.006 377.043 C 376.123 377.947,374.414 379.797,373.208 381.155 C 372.002 382.512,370.437 384.020,369.730 384.504 C 369.023 384.989,368.261 385.787,368.037 386.278 C 367.814 386.769,366.859 387.656,365.915 388.249 C 364.972 388.842,363.980 389.636,363.712 390.014 C 363.443 390.392,362.363 391.257,361.312 391.936 C 360.260 392.615,358.910 393.792,358.310 394.552 C 357.687 395.340,356.701 396.046,356.010 396.198 C 355.345 396.344,354.800 396.629,354.800 396.832 C 354.800 397.034,354.551 397.200,354.246 397.200 C 353.565 397.200,348.800 402.229,348.800 402.947 C 348.800 403.232,348.351 404.350,347.802 405.432 C 347.253 406.514,346.803 407.868,346.802 408.440 C 346.801 409.012,346.641 410.002,346.447 410.640 C 346.252 411.278,345.859 412.610,345.572 413.600 C 345.285 414.590,344.628 416.346,344.113 417.501 C 343.213 419.519,342.886 420.770,341.995 425.600 C 341.415 428.748,340.848 430.673,339.712 433.344 C 339.164 434.633,338.218 437.693,337.610 440.144 C 337.002 442.595,336.017 445.950,335.420 447.600 C 334.824 449.250,334.079 451.950,333.765 453.600 C 333.061 457.309,332.432 459.442,331.584 461.000 C 331.225 461.660,330.624 463.550,330.248 465.200 C 329.872 466.850,329.392 468.851,329.182 469.646 C 328.972 470.442,328.800 471.398,328.800 471.772 C 328.800 472.145,328.279 473.564,327.642 474.925 C 326.368 477.647,326.195 478.195,325.402 482.000 C 324.272 487.418,323.997 488.487,323.367 489.923 C 322.263 492.438,322.088 492.941,321.637 494.900 C 321.397 495.945,321.003 497.655,320.762 498.700 C 320.308 500.669,319.831 502.145,318.987 504.200 C 317.823 507.032,317.675 507.593,316.419 513.942 C 316.185 515.120,315.619 516.612,315.159 517.257 C 314.283 518.487,313.071 523.326,312.369 528.393 C 312.059 530.631,311.627 531.892,310.655 533.393 C 309.309 535.471,308.597 537.818,308.166 541.600 C 307.902 543.916,307.121 546.647,306.229 548.371 C 305.229 550.305,304.871 551.401,304.388 554.000 C 303.907 556.587,303.099 559.475,302.431 561.000 C 301.773 562.501,301.259 564.198,300.795 566.400 C 300.539 567.610,300.166 569.251,299.965 570.046 C 299.764 570.842,299.600 571.798,299.600 572.172 C 299.600 572.545,299.070 573.964,298.423 575.325 C 297.776 576.686,297.130 578.520,296.989 579.400 C 296.848 580.280,296.588 581.540,296.412 582.200 C 296.236 582.860,295.860 584.480,295.576 585.800 C 295.292 587.120,294.585 589.280,294.005 590.600 C 293.426 591.920,292.611 594.031,292.196 595.291 C 290.959 599.041,289.482 599.964,282.400 601.413 C 281.630 601.571,280.550 602.001,280.000 602.369 C 278.440 603.414,276.866 604.000,275.619 604.000 C 274.991 604.000,273.154 604.459,271.538 605.019 C 265.911 606.971,263.777 607.530,260.200 607.990 C 251.264 609.140,247.544 609.911,240.640 612.042 C 240.002 612.239,237.842 612.406,235.840 612.413 C 232.297 612.427,227.953 612.768,220.600 613.613 C 218.620 613.840,213.490 614.206,209.200 614.425 C 204.910 614.644,199.616 614.926,197.435 615.052 C 195.148 615.185,192.524 615.095,191.235 614.841 C 190.006 614.599,185.850 614.319,182.000 614.219 C 178.150 614.119,173.560 613.864,171.800 613.651 C 170.040 613.439,165.720 613.067,162.200 612.824 C 154.547 612.295,147.882 611.461,144.600 610.622 C 141.939 609.941,135.999 608.709,132.000 608.008 C 130.570 607.757,128.860 607.385,128.200 607.180 C 127.540 606.975,125.830 606.511,124.400 606.150 C 122.970 605.788,120.540 605.160,119.000 604.753 C 117.460 604.346,115.772 604.011,115.249 604.007 C 114.727 604.003,113.282 603.483,112.039 602.851 C 110.795 602.220,109.153 601.575,108.389 601.419 C 103.298 600.379,100.686 598.909,99.997 596.695 C 99.708 595.763,98.870 593.700,98.135 592.111 C 97.401 590.523,96.800 588.928,96.800 588.568 C 96.800 587.384,94.319 577.835,93.587 576.200 C 92.671 574.157,92.124 572.267,91.792 570.000 C 91.481 567.877,90.705 565.423,89.531 562.855 C 88.709 561.054,86.832 554.074,86.811 552.737 C 86.805 552.372,86.358 551.202,85.818 550.137 C 85.278 549.072,84.536 546.760,84.170 545.000 C 82.836 538.595,82.304 536.573,81.484 534.794 C 80.924 533.579,79.424 528.224,78.629 524.600 C 78.484 523.940,78.199 522.636,77.995 521.701 C 77.791 520.767,77.184 519.040,76.646 517.863 C 76.108 516.687,75.545 514.841,75.396 513.762 C 75.028 511.107,74.275 508.553,73.097 505.961 C 72.180 503.944,71.919 502.999,70.756 497.500 C 70.204 494.889,69.146 491.467,68.808 491.200 C 68.391 490.871,67.714 488.752,67.211 486.200 C 66.950 484.880,66.571 483.215,66.369 482.500 C 65.378 479.005,65.067 478.008,64.214 475.600 C 63.708 474.170,63.066 471.920,62.788 470.600 C 61.836 466.093,61.276 464.122,60.401 462.202 C 59.131 459.415,58.493 457.080,58.176 454.062 C 58.008 452.458,57.466 450.526,56.812 449.200 C 56.215 447.990,55.530 446.190,55.288 445.200 C 53.432 437.590,52.797 435.350,52.057 433.800 C 51.266 432.145,50.805 430.571,50.007 426.800 C 49.751 425.590,49.395 424.150,49.217 423.600 C 49.039 423.050,48.659 421.790,48.374 420.800 C 48.089 419.810,47.704 418.796,47.518 418.548 C 47.067 417.943,46.000 413.795,46.000 412.647 C 46.000 411.339,44.449 406.792,43.772 406.115 C 43.458 405.801,42.728 404.738,42.151 403.753 C 41.574 402.768,40.524 401.566,39.818 401.081 C 36.286 398.656,24.400 387.160,24.400 386.169 C 24.400 385.913,23.712 385.143,22.870 384.457 C 22.029 383.772,21.085 382.713,20.772 382.105 C 20.459 381.497,19.283 379.470,18.160 377.600 C 14.702 371.844,13.344 369.090,12.834 366.800 C 11.636 361.421,11.091 359.320,10.603 358.200 C 9.519 355.715,9.200 353.050,9.200 346.483 C 9.200 340.326,9.395 338.642,10.393 336.200 C 10.999 334.715,11.521 333.010,11.985 331.000 C 12.966 326.753,13.321 325.719,14.639 323.263 C 15.387 321.868,16.000 320.561,16.000 320.359 C 16.000 319.700,17.616 316.533,18.359 315.736 C 18.758 315.308,19.644 313.798,20.329 312.379 C 21.014 310.961,22.183 309.166,22.927 308.391 C 23.671 307.615,24.532 306.503,24.840 305.919 C 25.590 304.498,27.885 301.781,32.026 297.414 L 35.451 293.800 34.626 291.322 C 34.171 289.959,33.172 287.979,32.405 286.922 C 30.273 283.985,29.811 283.151,29.237 281.200 C 28.368 278.248,27.896 277.097,26.746 275.126 C 23.819 270.113,23.858 248.210,26.802 243.474 C 27.902 241.705,28.863 239.028,29.485 236.000 C 29.599 235.450,30.175 234.370,30.766 233.600 C 31.357 232.830,32.442 231.120,33.178 229.800 C 33.914 228.480,35.096 226.680,35.805 225.800 C 36.515 224.920,37.397 223.551,37.766 222.758 C 38.134 221.965,38.893 221.071,39.451 220.773 C 40.010 220.474,40.897 219.503,41.424 218.615 C 41.950 217.727,43.497 216.010,44.861 214.800 C 46.226 213.590,48.336 211.655,49.550 210.500 C 50.764 209.345,51.955 208.400,52.197 208.400 C 52.438 208.400,53.371 207.725,54.270 206.900 C 55.170 206.075,56.602 204.829,57.453 204.132 C 58.304 203.434,59.968 201.962,61.152 200.860 L 63.303 198.856 63.057 195.528 C 62.921 193.698,62.693 191.038,62.551 189.617 C 62.135 185.471,63.724 174.800,64.757 174.800 C 64.912 174.800,65.280 174.125,65.573 173.300 C 66.470 170.783,67.693 168.243,68.414 167.400 C 68.791 166.960,69.592 165.700,70.195 164.600 C 70.797 163.500,71.945 161.868,72.745 160.974 C 73.545 160.080,74.470 158.915,74.800 158.385 C 75.859 156.684,81.986 151.033,85.600 148.425 C 86.810 147.552,87.980 146.694,88.200 146.519 C 88.420 146.344,89.060 145.963,89.622 145.674 C 90.184 145.385,91.174 144.659,91.822 144.061 C 93.029 142.947,97.083 140.800,97.979 140.800 C 98.254 140.800,98.956 140.290,99.540 139.667 C 100.835 138.282,102.057 137.600,103.244 137.600 C 103.971 137.600,107.398 136.160,110.780 134.434 C 112.791 133.408,112.985 132.470,113.262 122.472 C 113.556 111.877,114.150 102.729,114.591 102.015 C 115.028 101.307,116.000 96.387,116.000 94.877 C 116.000 94.150,116.163 92.800,116.363 91.877 C 116.562 90.955,116.935 88.760,117.190 87.000 C 117.650 83.835,118.287 81.393,118.865 80.581 C 119.030 80.350,119.696 78.100,120.346 75.581 C 121.704 70.320,121.893 69.764,122.783 68.400 C 123.458 67.366,124.933 63.142,125.383 60.954 C 125.524 60.269,126.010 59.310,126.463 58.824 C 126.916 58.338,128.065 56.534,129.016 54.815 C 130.685 51.798,132.727 49.241,135.545 46.641 C 139.077 43.382,139.793 42.800,140.278 42.800 C 140.565 42.800,140.800 42.640,140.800 42.443 C 140.800 42.247,141.270 41.969,141.844 41.825 C 142.973 41.541,146.474 39.985,146.800 39.622 C 147.143 39.240,148.928 38.507,150.646 38.044 C 152.804 37.462,166.279 37.460,167.947 38.042 C 171.339 39.224,171.697 38.119,170.205 31.072 C 169.594 28.183,169.592 27.664,170.185 24.272 C 171.183 18.566,171.201 18.513,172.769 16.706 C 173.583 15.768,174.494 14.392,174.794 13.648 C 175.094 12.905,175.762 11.874,176.279 11.358 L 177.218 10.419 179.309 11.252 C 180.459 11.710,181.590 12.161,181.821 12.255 M171.380 39.500 C 171.251 40.105,170.977 41.013,170.772 41.519 C 169.684 44.204,170.630 46.758,172.722 46.787 C 173.229 46.794,174.450 47.167,175.435 47.616 C 177.993 48.781,181.501 49.380,182.228 48.777 C 183.126 48.032,182.915 47.607,181.314 46.938 C 179.708 46.267,178.833 45.369,178.813 44.370 C 178.797 43.588,177.155 42.000,176.363 42.000 C 175.744 42.000,175.052 41.301,173.891 39.500 C 172.954 38.047,171.691 38.047,171.380 39.500 M163.898 46.947 C 163.512 47.246,163.000 48.055,162.759 48.745 C 162.438 49.667,162.075 50.000,161.390 50.000 C 159.873 50.000,158.800 51.762,158.800 54.254 C 158.800 58.163,161.806 56.167,162.946 51.500 C 163.094 50.895,163.457 50.400,163.751 50.400 C 164.483 50.400,169.200 47.942,169.200 47.560 C 169.200 46.767,164.790 46.257,163.898 46.947 M146.980 52.033 C 146.832 52.271,145.910 52.810,144.931 53.230 C 142.030 54.473,141.200 55.700,141.200 58.745 C 141.200 63.860,146.346 63.647,149.544 58.400 C 150.661 56.567,150.492 54.315,149.073 52.100 C 148.680 51.486,147.344 51.443,146.980 52.033 M156.096 57.704 C 155.879 57.977,155.388 59.370,155.004 60.800 C 153.218 67.462,153.783 68.855,158.528 69.491 C 165.721 70.454,168.400 71.239,168.400 72.384 C 168.400 72.834,168.841 73.276,169.531 73.516 C 173.713 74.974,173.550 78.886,169.161 82.400 C 166.744 84.336,166.890 102.301,169.317 101.495 C 170.317 101.163,170.545 99.303,170.008 95.852 C 169.506 92.622,169.559 90.861,170.323 85.432 C 170.585 83.571,170.687 83.435,172.211 82.928 C 173.340 82.553,174.038 81.991,174.545 81.049 C 175.071 80.073,175.716 79.572,176.906 79.216 C 179.278 78.505,180.301 77.711,180.802 76.193 C 181.219 74.930,181.378 74.837,183.522 74.593 C 190.869 73.758,189.316 72.096,181.200 72.107 C 173.163 72.118,169.639 71.496,169.343 70.016 C 169.043 68.513,166.960 67.566,163.259 67.251 L 160.318 67.000 159.345 65.263 C 158.043 62.942,157.213 60.481,157.206 58.924 C 157.199 57.501,156.697 56.950,156.096 57.704 M192.900 68.282 C 192.405 68.378,192.000 68.627,192.000 68.836 C 192.000 69.711,193.783 70.038,195.400 69.460 L 197.000 68.888 195.874 68.444 C 194.726 67.991,194.480 67.978,192.900 68.282 M214.142 72.208 C 213.620 73.567,214.481 74.458,215.537 73.654 L 216.474 72.941 215.430 72.256 C 214.485 71.637,214.362 71.633,214.142 72.208 M130.800 76.777 C 130.800 76.984,129.720 77.984,128.400 79.000 L 126.000 80.847 126.000 83.343 C 126.000 86.417,126.356 86.800,129.210 86.800 C 131.473 86.800,133.200 85.794,133.200 84.474 C 133.200 84.213,133.380 84.000,133.600 84.000 C 133.820 84.000,134.000 83.787,134.000 83.526 C 134.000 83.265,134.333 82.680,134.740 82.226 C 135.822 81.019,136.857 77.550,136.326 76.910 C 135.831 76.314,130.800 76.192,130.800 76.777 M153.795 81.300 C 149.381 85.259,149.522 84.957,150.440 88.493 C 151.560 92.812,158.258 89.564,159.317 84.189 C 159.446 83.535,159.666 82.545,159.805 81.990 C 160.027 81.105,159.865 80.894,158.495 80.290 C 156.284 79.315,155.922 79.393,153.795 81.300 M229.265 84.635 C 228.815 85.145,228.871 85.536,229.619 87.120 C 230.440 88.859,230.489 89.383,230.266 94.101 C 230.134 96.907,230.129 99.472,230.256 99.801 C 230.976 101.678,232.800 98.851,232.800 95.858 C 232.800 91.869,233.007 91.749,240.754 91.240 C 247.204 90.817,249.647 89.921,245.753 89.407 C 240.760 88.748,236.870 87.670,235.867 86.667 C 233.437 84.237,230.434 83.313,229.265 84.635 M201.298 91.945 C 199.777 95.606,200.680 96.893,204.649 96.719 L 207.370 96.600 207.651 95.221 C 208.149 92.771,207.024 91.151,204.400 90.543 C 203.190 90.263,202.179 90.026,202.153 90.017 C 202.128 90.008,201.743 90.875,201.298 91.945 M197.043 97.833 C 196.909 98.181,196.800 98.901,196.800 99.433 C 196.800 100.283,196.619 100.400,195.300 100.402 C 192.324 100.406,190.356 103.421,192.990 103.938 C 193.803 104.098,197.200 102.457,197.200 101.904 C 197.200 101.701,197.830 100.766,198.600 99.826 C 199.370 98.886,200.000 97.911,200.000 97.659 C 200.000 96.936,197.327 97.093,197.043 97.833 M208.000 97.541 C 208.000 98.460,210.465 100.444,211.028 99.977 C 211.725 99.398,211.768 98.328,211.120 97.680 C 210.575 97.135,208.000 97.020,208.000 97.541 M128.958 102.215 C 127.881 103.213,126.595 104.390,126.100 104.829 C 124.802 105.982,125.121 109.972,126.610 111.208 C 128.624 112.880,133.826 108.978,135.010 104.907 C 135.791 102.219,135.592 101.732,133.395 100.967 C 131.158 100.189,131.138 100.195,128.958 102.215 M226.870 101.063 C 226.585 101.368,226.085 102.514,225.760 103.609 C 225.064 105.954,224.997 105.975,220.000 105.404 C 217.062 105.069,216.128 105.673,217.002 107.346 C 217.331 107.976,217.600 108.732,217.600 109.027 C 217.600 110.979,218.478 111.638,220.920 111.517 L 223.296 111.400 223.959 109.600 C 224.473 108.204,224.958 107.641,226.124 107.090 C 227.023 106.666,227.792 105.943,228.038 105.290 C 228.264 104.691,228.708 103.677,229.025 103.039 C 229.802 101.470,229.769 101.337,228.495 100.893 C 227.670 100.606,227.257 100.649,226.870 101.063 M213.110 101.626 C 212.484 101.991,212.524 102.137,213.553 103.214 C 214.939 104.665,215.115 104.676,215.619 103.351 C 216.221 101.766,214.683 100.709,213.110 101.626 M171.900 102.432 C 169.909 103.592,171.978 109.683,174.017 108.666 C 175.137 108.108,175.455 107.069,174.880 105.847 C 174.661 105.381,174.185 104.325,173.822 103.500 C 173.113 101.887,172.971 101.808,171.900 102.432 M188.980 104.363 C 188.771 104.563,187.970 105.074,187.200 105.498 C 185.000 106.709,185.292 107.771,187.866 107.920 C 190.050 108.046,191.600 107.085,191.600 105.605 C 191.600 104.305,189.889 103.495,188.980 104.363 M151.200 106.098 C 146.891 107.814,145.687 108.449,144.364 109.703 C 143.724 110.310,143.192 110.940,143.183 111.103 C 143.173 111.267,143.018 112.161,142.838 113.090 C 142.341 115.660,143.041 116.400,145.969 116.400 C 148.254 116.400,150.400 115.407,150.400 114.349 C 150.400 114.133,150.944 113.381,151.609 112.678 C 154.021 110.129,153.708 105.099,151.200 106.098 M243.153 106.888 C 242.889 107.381,242.432 108.025,242.137 108.320 C 241.842 108.616,241.600 109.114,241.600 109.429 C 241.600 109.743,241.420 110.000,241.200 110.000 C 240.980 110.000,240.800 110.272,240.800 110.604 C 240.800 110.937,240.410 112.038,239.934 113.052 L 239.068 114.894 240.434 116.088 C 243.680 118.924,246.269 117.930,247.006 113.564 C 247.151 112.706,247.434 111.903,247.635 111.778 C 248.234 111.408,248.050 109.450,247.316 108.389 C 245.725 106.087,243.928 105.439,243.153 106.888 M201.506 107.116 C 201.125 107.472,199.973 108.226,198.946 108.791 C 197.253 109.722,197.007 110.050,196.307 112.301 L 195.536 114.784 196.453 116.621 C 197.649 119.015,197.767 119.061,199.615 117.838 C 200.477 117.267,201.335 116.800,201.522 116.800 C 202.682 116.800,204.780 112.999,204.794 110.872 C 204.799 110.141,202.619 106.292,202.281 106.434 C 202.236 106.452,201.888 106.759,201.506 107.116 M175.417 109.573 C 174.353 111.295,176.691 114.200,179.447 114.579 C 181.476 114.858,181.489 114.853,181.728 113.660 C 182.024 112.178,183.444 110.800,184.675 110.800 C 186.973 110.800,185.282 110.061,182.500 109.849 C 180.795 109.719,178.566 109.503,177.546 109.370 C 176.364 109.215,175.593 109.288,175.417 109.573 M167.545 116.700 C 166.322 118.038,164.183 121.474,163.822 122.680 C 163.395 124.106,166.202 126.048,168.600 125.985 C 169.356 125.965,171.239 124.003,171.808 122.642 C 172.121 121.893,172.629 121.028,172.936 120.721 C 174.232 119.425,173.672 116.800,172.099 116.800 C 171.875 116.800,171.176 116.531,170.546 116.202 C 168.982 115.387,168.702 115.434,167.545 116.700 M125.800 123.038 C 125.140 123.609,124.060 124.348,123.400 124.681 C 119.492 126.653,119.983 134.352,123.944 133.216 C 128.054 132.037,129.879 129.632,129.700 125.630 C 129.549 122.239,127.952 121.178,125.800 123.038 M205.708 126.700 C 202.064 132.068,204.600 140.257,208.652 136.205 C 208.985 135.872,209.392 135.600,209.557 135.600 C 210.923 135.600,212.342 127.576,211.216 126.219 C 210.259 125.066,206.600 125.386,205.708 126.700 M237.730 129.718 C 234.103 133.371,233.346 135.537,234.626 138.600 C 235.314 140.247,236.822 140.419,239.413 139.144 C 242.097 137.824,243.054 131.713,240.964 129.231 C 239.676 127.699,239.745 127.689,237.730 129.718 M147.194 131.407 C 146.917 131.741,146.040 132.313,145.245 132.678 C 141.921 134.205,141.599 134.616,141.606 137.327 C 141.613 140.054,141.771 140.454,143.120 141.165 C 144.989 142.149,147.487 140.623,150.628 136.577 C 152.593 134.046,149.219 128.967,147.194 131.407 M184.784 135.214 C 184.353 135.588,184.000 136.083,184.000 136.314 C 184.000 136.544,183.865 136.793,183.700 136.867 C 181.799 137.711,179.627 143.289,180.637 144.731 C 182.193 146.953,186.941 145.906,187.983 143.110 C 188.251 142.390,188.721 141.330,189.026 140.755 C 190.163 138.611,190.238 135.269,189.153 135.043 C 186.640 134.517,185.537 134.560,184.784 135.214 M253.800 136.569 C 252.585 136.937,251.879 137.527,250.868 139.020 C 250.136 140.101,249.059 141.299,248.475 141.682 C 247.891 142.065,246.960 143.041,246.407 143.850 C 245.853 144.660,245.050 145.520,244.622 145.761 C 243.581 146.348,242.862 146.891,242.281 147.526 C 240.735 149.217,239.436 150.400,239.124 150.400 C 238.685 150.400,238.167 150.825,235.345 153.500 C 234.126 154.655,232.890 155.600,232.597 155.600 C 232.304 155.600,231.491 156.208,230.790 156.951 C 230.089 157.695,228.637 158.714,227.564 159.217 C 226.491 159.720,225.513 160.444,225.392 160.826 C 225.271 161.208,224.143 162.023,222.886 162.638 C 221.629 163.252,220.150 164.191,219.600 164.723 C 219.050 165.255,217.250 166.324,215.600 167.098 C 213.950 167.873,212.506 168.652,212.391 168.830 C 212.184 169.149,206.624 172.000,206.207 172.000 C 206.089 172.000,205.440 172.528,204.765 173.173 C 203.590 174.296,200.595 175.600,199.191 175.600 C 198.824 175.600,197.461 176.276,196.162 177.103 C 193.776 178.620,192.132 179.303,189.630 179.814 C 188.877 179.968,187.707 180.433,187.030 180.846 C 184.650 182.301,182.570 183.063,179.600 183.571 C 177.950 183.852,176.330 184.177,176.000 184.292 C 175.670 184.406,174.770 184.641,174.000 184.813 C 173.230 184.985,171.384 185.490,169.898 185.935 C 166.078 187.080,154.441 187.835,150.154 187.216 C 147.146 186.782,146.119 186.504,143.400 185.387 C 142.740 185.116,141.570 184.674,140.800 184.406 C 138.343 183.549,136.004 182.291,134.886 181.223 C 134.289 180.653,133.121 179.768,132.291 179.256 C 131.462 178.743,130.298 177.666,129.705 176.862 C 129.112 176.058,127.991 174.750,127.214 173.956 C 126.436 173.162,125.277 171.501,124.638 170.265 C 123.999 169.029,123.181 167.699,122.821 167.309 C 122.213 166.652,119.593 160.608,119.598 159.874 C 119.599 159.695,119.180 158.615,118.666 157.474 C 117.468 154.811,116.886 152.408,115.596 144.800 C 114.767 139.907,114.574 139.510,112.329 138.048 C 109.753 136.371,108.839 136.733,108.223 139.673 C 108.085 140.333,107.651 140.844,107.099 140.998 C 104.927 141.607,103.481 142.560,101.485 144.699 C 100.819 145.413,99.603 146.294,98.785 146.655 C 97.854 147.066,97.091 147.774,96.748 148.548 C 96.447 149.228,95.463 150.328,94.562 150.993 C 93.457 151.808,92.614 152.910,91.968 154.387 C 91.442 155.589,90.552 157.029,89.990 157.587 C 88.507 159.059,87.740 160.415,87.492 162.002 C 87.373 162.771,87.088 164.030,86.859 164.800 C 84.394 173.114,84.420 172.368,86.391 178.400 C 86.570 178.950,87.141 180.816,87.659 182.546 C 88.399 185.021,88.873 185.902,89.882 186.679 C 90.586 187.222,91.607 188.423,92.148 189.348 C 92.690 190.273,93.599 191.278,94.167 191.582 C 94.735 191.886,95.200 192.252,95.200 192.396 C 95.200 193.029,97.526 195.104,98.800 195.608 C 99.570 195.912,100.917 196.836,101.794 197.662 C 102.670 198.487,104.200 199.455,105.194 199.812 C 107.539 200.656,108.681 201.188,110.426 202.249 C 111.210 202.726,113.100 203.518,114.626 204.008 C 116.152 204.499,118.767 205.511,120.437 206.259 C 122.135 207.019,125.046 207.892,127.037 208.240 C 133.185 209.312,134.152 209.515,136.000 210.116 C 147.987 214.013,193.443 214.205,203.000 210.399 C 205.570 209.376,208.482 208.732,213.000 208.187 C 215.673 207.865,217.982 207.198,219.200 206.397 C 220.527 205.524,222.133 204.956,224.800 204.413 C 227.540 203.855,230.074 203.142,230.600 202.781 C 232.027 201.802,235.014 200.432,237.495 199.618 C 239.088 199.095,240.708 198.374,241.095 198.016 C 241.483 197.657,242.970 196.811,244.400 196.135 C 245.830 195.459,247.540 194.433,248.200 193.853 C 249.308 192.881,253.215 190.800,253.933 190.800 C 254.104 190.800,254.954 190.146,255.822 189.346 C 256.690 188.546,258.300 187.215,259.400 186.387 C 261.516 184.794,264.992 181.540,266.006 180.200 C 266.339 179.760,267.053 178.770,267.593 178.000 C 268.132 177.230,268.766 176.401,269.001 176.158 C 269.405 175.739,270.829 172.983,271.769 170.800 C 272.006 170.250,272.425 169.562,272.699 169.272 C 272.974 168.982,273.304 168.262,273.432 167.672 C 273.560 167.082,273.860 166.085,274.099 165.456 C 275.837 160.877,273.036 151.564,268.427 146.600 C 267.610 145.720,266.649 144.525,266.291 143.945 C 265.934 143.365,265.011 142.501,264.241 142.025 C 263.470 141.549,262.477 140.572,262.033 139.853 C 261.530 139.040,260.294 138.066,258.756 137.273 C 256.039 135.872,256.080 135.878,253.800 136.569 M222.400 141.889 C 218.549 142.988,216.800 145.458,216.800 149.795 C 216.800 153.861,218.503 154.954,221.815 153.012 C 226.016 150.550,226.534 140.710,222.400 141.889 M162.519 142.539 C 157.153 144.010,155.534 154.000,160.660 154.000 C 164.147 154.000,168.285 145.036,165.797 142.872 C 164.674 141.896,164.815 141.910,162.519 142.539 M133.310 150.388 C 131.266 150.874,130.082 151.865,129.003 153.994 C 127.689 156.588,127.717 156.812,129.612 158.765 L 131.225 160.427 133.309 158.713 C 135.787 156.675,136.228 156.178,136.959 154.600 C 138.020 152.308,138.025 151.988,137.014 150.978 C 135.997 149.960,135.467 149.876,133.310 150.388 M195.563 158.291 C 193.723 158.439,192.006 160.252,191.998 162.054 C 191.996 162.355,191.728 163.111,191.403 163.736 C 191.030 164.451,190.936 165.118,191.149 165.536 C 191.335 165.901,191.606 166.830,191.752 167.600 C 192.303 170.520,194.976 170.770,196.712 168.063 C 197.087 167.478,197.711 166.650,198.100 166.221 C 200.177 163.931,199.773 157.361,197.600 158.078 C 197.490 158.115,196.573 158.210,195.563 158.291 M171.270 164.126 C 170.791 164.635,170.400 165.179,170.400 165.334 C 170.400 165.489,169.947 166.333,169.394 167.210 C 168.322 168.908,167.668 172.977,168.316 173.921 C 168.513 174.208,169.695 174.680,170.944 174.971 C 173.844 175.645,174.782 174.879,175.413 171.327 C 176.494 165.237,174.113 161.099,171.270 164.126 M151.429 164.754 C 151.309 164.948,150.355 165.509,149.310 166.000 C 147.214 166.986,146.330 167.983,145.945 169.798 C 145.804 170.459,145.566 171.540,145.416 172.200 C 145.126 173.471,146.831 176.354,147.892 176.385 C 150.342 176.458,154.028 172.206,154.122 169.200 C 154.201 166.652,152.248 163.428,151.429 164.754 M300.831 192.636 C 300.154 193.205,299.600 193.852,299.600 194.074 C 299.600 194.295,299.221 195.009,298.757 195.660 C 298.294 196.311,297.304 198.097,296.559 199.629 C 295.813 201.161,294.483 203.196,293.602 204.152 C 292.721 205.108,292.000 206.078,292.000 206.307 C 292.000 206.537,291.101 207.479,290.001 208.399 C 288.902 209.319,287.710 210.568,287.352 211.173 C 286.994 211.779,286.288 212.528,285.783 212.837 C 285.278 213.147,284.050 214.165,283.056 215.100 C 282.061 216.035,281.134 216.800,280.996 216.800 C 280.660 216.800,277.654 218.892,276.400 219.997 C 275.850 220.482,274.513 221.331,273.428 221.883 C 272.344 222.435,271.191 223.151,270.867 223.476 C 270.151 224.192,265.667 226.400,264.929 226.400 C 264.638 226.400,264.400 226.562,264.400 226.760 C 264.400 227.311,261.803 228.722,259.480 229.434 C 256.958 230.207,255.832 230.709,254.000 231.878 C 253.230 232.369,251.502 233.122,250.160 233.550 C 248.818 233.978,246.568 234.861,245.160 235.513 C 243.752 236.164,241.610 236.926,240.400 237.205 C 237.547 237.864,233.913 239.081,231.400 240.218 C 230.202 240.761,227.795 241.313,225.400 241.596 C 219.820 242.253,215.740 243.067,213.400 243.987 C 207.779 246.198,175.621 247.643,159.800 246.396 C 144.620 245.198,143.191 245.012,138.000 243.554 C 137.230 243.338,135.430 242.993,134.000 242.787 C 132.570 242.582,130.410 242.223,129.200 241.989 C 127.990 241.755,126.010 241.407,124.800 241.215 C 123.590 241.024,121.430 240.335,120.000 239.686 C 118.570 239.037,116.410 238.274,115.200 237.992 C 111.892 237.220,110.033 236.589,107.069 235.231 C 105.590 234.554,104.150 234.000,103.870 234.000 C 103.589 234.000,103.189 233.848,102.980 233.663 C 102.771 233.477,101.577 233.014,100.328 232.634 C 99.078 232.254,97.590 231.512,97.022 230.985 C 96.454 230.459,95.258 229.831,94.365 229.590 C 93.471 229.350,92.169 228.571,91.470 227.859 C 90.303 226.671,86.962 224.800,86.006 224.800 C 85.784 224.800,84.927 224.203,84.101 223.474 C 83.276 222.744,81.982 221.719,81.228 221.195 C 79.072 219.699,76.372 217.214,73.991 214.535 C 73.436 213.911,72.613 213.159,72.163 212.863 C 71.712 212.568,70.909 211.623,70.377 210.763 C 69.846 209.904,69.242 209.200,69.035 209.200 C 68.147 209.200,63.885 214.290,62.708 216.757 C 62.014 218.211,61.320 219.490,61.166 219.600 C 60.554 220.037,58.370 224.819,58.035 226.458 C 55.366 239.482,55.198 241.936,56.821 244.200 C 56.979 244.420,57.484 246.103,57.945 247.941 C 58.405 249.778,59.029 251.758,59.332 252.341 C 60.131 253.881,63.235 258.883,63.755 259.469 C 64.000 259.744,64.920 260.817,65.800 261.854 C 67.717 264.113,70.276 266.728,71.545 267.725 C 73.796 269.494,76.329 271.200,76.706 271.200 C 76.931 271.200,77.974 272.010,79.022 273.000 C 80.070 273.990,81.176 274.800,81.480 274.800 C 82.270 274.800,85.143 276.321,86.792 277.613 C 87.566 278.219,88.920 278.938,89.800 279.210 C 92.264 279.972,94.400 280.892,94.400 281.192 C 94.400 281.684,98.165 283.149,100.059 283.395 C 101.082 283.528,103.332 284.320,105.060 285.156 C 108.298 286.722,110.041 287.219,115.200 288.046 C 116.850 288.311,119.318 289.024,120.684 289.631 C 123.154 290.729,126.530 291.342,133.800 292.011 C 137.846 292.384,142.115 293.009,144.800 293.623 C 153.930 295.709,188.962 295.956,200.400 294.015 C 205.397 293.167,208.753 292.687,214.400 292.013 C 223.329 290.946,226.968 290.347,229.069 289.599 C 230.351 289.142,233.110 288.417,235.200 287.988 C 240.810 286.834,241.535 286.629,244.600 285.334 C 246.140 284.682,248.480 283.917,249.800 283.633 C 252.591 283.032,252.939 282.907,256.400 281.263 C 257.830 280.583,259.540 279.911,260.200 279.770 C 262.981 279.173,267.053 277.551,267.600 276.822 C 267.898 276.425,271.229 274.956,272.561 274.634 C 273.200 274.480,274.460 273.857,275.361 273.249 C 277.048 272.112,280.521 270.400,281.141 270.400 C 281.333 270.400,282.178 269.853,283.018 269.185 C 283.859 268.517,285.693 267.424,287.094 266.755 C 288.495 266.087,290.217 265.038,290.920 264.425 C 291.624 263.812,292.830 262.992,293.600 262.602 C 294.370 262.212,295.730 261.242,296.622 260.446 C 297.514 259.651,298.774 258.595,299.422 258.100 C 304.717 254.057,310.891 247.785,312.320 245.000 C 312.997 243.680,314.071 242.004,314.707 241.277 C 315.343 240.549,316.273 238.749,316.774 237.277 C 317.274 235.804,318.078 234.060,318.561 233.400 C 321.407 229.513,321.554 213.406,318.761 211.587 C 318.581 211.469,317.810 210.029,317.049 208.387 C 316.287 206.744,315.134 204.851,314.487 204.180 C 313.839 203.510,313.060 202.490,312.755 201.915 C 311.817 200.148,303.243 191.600,302.408 191.600 C 302.217 191.600,301.508 192.066,300.831 192.636 M343.000 289.294 C 342.560 289.730,341.570 290.556,340.800 291.128 C 340.030 291.701,338.575 292.897,337.568 293.785 C 336.560 294.673,334.700 296.300,333.435 297.400 C 332.170 298.500,330.925 299.584,330.668 299.809 C 329.706 300.649,324.933 303.888,323.128 304.925 C 322.099 305.517,321.019 306.237,320.728 306.526 C 320.438 306.816,319.300 307.572,318.200 308.207 C 317.100 308.842,316.110 309.461,316.000 309.582 C 315.286 310.369,312.023 312.265,310.398 312.837 C 309.334 313.212,307.684 314.037,306.732 314.671 C 304.868 315.912,303.794 316.443,301.600 317.207 C 299.195 318.044,297.478 318.883,296.714 319.594 C 296.310 319.971,295.219 320.504,294.290 320.778 C 293.360 321.053,292.287 321.440,291.905 321.639 C 291.523 321.838,291.040 322.000,290.832 322.000 C 290.624 322.000,289.586 322.528,288.527 323.174 C 287.467 323.820,285.340 324.652,283.800 325.024 C 282.260 325.395,280.325 326.037,279.500 326.449 C 278.675 326.862,277.325 327.532,276.500 327.937 C 275.675 328.343,273.560 328.989,271.800 329.374 C 267.358 330.346,266.160 330.724,263.343 332.047 C 261.991 332.681,260.281 333.200,259.543 333.200 C 257.799 333.200,249.313 335.056,248.600 335.594 C 248.132 335.947,245.341 336.569,241.400 337.200 C 239.860 337.447,237.731 337.818,236.669 338.024 C 235.608 338.231,233.951 338.400,232.988 338.400 C 232.025 338.400,230.734 338.602,230.119 338.850 C 229.503 339.097,228.640 339.444,228.200 339.620 C 220.743 342.605,156.891 343.008,143.600 340.153 C 138.833 339.129,137.197 338.836,134.000 338.429 C 132.350 338.219,129.830 337.795,128.400 337.486 C 126.970 337.178,124.450 336.707,122.800 336.440 C 117.493 335.583,115.439 335.178,113.600 334.625 C 112.610 334.328,110.810 333.877,109.600 333.625 C 106.148 332.903,104.257 332.273,103.517 331.597 C 103.142 331.253,101.702 330.736,100.317 330.447 C 92.656 328.847,90.894 328.329,89.200 327.184 C 88.098 326.439,84.187 325.025,82.000 324.580 C 81.230 324.424,79.880 323.811,79.000 323.218 C 78.120 322.626,76.320 321.717,75.000 321.199 C 73.680 320.682,71.700 319.703,70.600 319.024 C 69.500 318.346,67.385 317.190,65.900 316.457 C 64.415 315.724,63.200 314.976,63.200 314.795 C 63.200 314.614,62.064 313.913,60.676 313.237 C 59.288 312.561,56.908 311.016,55.387 309.804 C 52.240 307.296,52.245 307.297,49.844 308.463 C 46.881 309.903,46.000 313.188,46.000 322.800 C 46.000 331.558,48.259 338.887,52.666 344.432 C 53.292 345.219,54.220 346.672,54.729 347.661 C 55.237 348.650,56.181 349.771,56.827 350.152 C 57.472 350.533,58.000 351.024,58.000 351.242 C 58.000 351.928,63.680 357.219,65.517 358.244 C 66.482 358.783,67.692 359.724,68.206 360.334 C 69.089 361.383,71.646 362.880,73.400 363.373 C 73.840 363.497,74.775 364.138,75.478 364.799 C 76.181 365.460,76.913 366.000,77.103 366.000 C 77.675 366.000,80.859 367.620,83.108 369.055 C 84.267 369.795,85.394 370.400,85.613 370.400 C 85.832 370.400,86.323 370.548,86.705 370.730 C 87.087 370.911,88.750 371.705,90.400 372.493 C 93.614 374.028,94.183 374.238,98.800 375.605 C 100.450 376.093,102.430 376.814,103.200 377.207 C 105.341 378.300,106.701 378.716,110.400 379.413 C 113.894 380.071,115.192 380.449,117.572 381.500 C 119.561 382.378,123.128 383.169,125.176 383.186 C 126.153 383.194,127.953 383.384,129.176 383.609 C 130.399 383.834,133.470 384.368,136.000 384.796 C 138.530 385.223,142.040 385.834,143.800 386.152 C 149.536 387.190,154.870 387.607,162.200 387.590 C 166.160 387.580,170.370 387.759,171.555 387.986 C 176.683 388.971,212.523 387.473,219.800 385.970 C 223.285 385.250,228.416 384.419,234.400 383.604 C 240.861 382.725,242.377 382.408,244.406 381.510 C 246.885 380.414,248.158 380.053,250.400 379.809 C 254.536 379.360,259.244 378.159,262.200 376.798 C 263.520 376.190,265.590 375.484,266.800 375.230 C 269.931 374.570,273.298 373.512,274.000 372.968 C 274.917 372.256,277.182 371.341,279.400 370.787 C 281.323 370.306,283.418 369.394,286.400 367.740 C 287.170 367.312,288.610 366.715,289.600 366.412 C 290.590 366.109,291.571 365.712,291.780 365.530 C 291.989 365.349,292.462 365.200,292.831 365.200 C 293.200 365.200,293.711 364.948,293.967 364.640 C 294.222 364.332,295.459 363.672,296.716 363.173 C 297.972 362.674,300.170 361.498,301.600 360.560 C 303.030 359.621,305.010 358.544,306.000 358.167 C 306.990 357.789,308.250 357.072,308.800 356.573 C 309.350 356.074,310.880 355.085,312.200 354.374 C 313.520 353.663,315.410 352.516,316.400 351.825 C 317.390 351.133,318.677 350.329,319.260 350.038 C 321.774 348.780,330.877 340.638,333.571 337.237 C 334.258 336.369,335.588 334.880,336.525 333.929 C 339.316 331.098,341.940 327.188,341.986 325.791 C 341.994 325.566,342.544 324.723,343.208 323.917 C 344.548 322.291,345.978 319.393,345.991 318.275 C 346.005 317.175,347.242 313.575,348.149 312.000 C 349.486 309.678,349.274 298.984,347.836 296.200 C 347.268 295.100,346.803 294.010,346.802 293.779 C 346.799 293.144,344.830 289.321,344.281 288.883 C 343.955 288.624,343.542 288.757,343.000 289.294 M314.000 419.102 C 314.000 419.462,312.481 420.101,310.000 420.786 C 306.769 421.678,304.897 422.422,304.062 423.147 C 303.193 423.900,301.124 424.621,298.790 424.983 C 296.150 425.394,293.061 429.879,292.675 433.864 C 292.075 440.065,290.877 447.556,289.999 450.600 C 289.745 451.480,289.388 453.100,289.205 454.200 C 289.022 455.300,288.605 457.550,288.278 459.200 C 287.951 460.850,287.471 464.090,287.211 466.400 C 286.951 468.710,286.378 471.950,285.938 473.600 C 284.637 478.483,284.037 482.253,283.583 488.400 C 283.155 494.202,282.801 495.651,281.525 496.828 C 281.053 497.263,280.710 498.615,280.409 501.228 C 280.170 503.303,279.804 506.170,279.596 507.600 C 279.388 509.030,279.042 511.730,278.827 513.600 C 278.612 515.470,278.241 517.630,278.002 518.400 C 277.763 519.170,277.408 520.520,277.213 521.400 C 277.018 522.280,276.593 524.080,276.269 525.400 C 275.945 526.720,275.563 529.150,275.420 530.800 C 274.995 535.740,274.359 539.669,273.608 542.000 C 272.629 545.042,271.369 551.483,271.026 555.200 C 270.760 558.085,270.167 561.625,269.450 564.600 C 268.018 570.546,267.642 572.429,267.215 575.800 C 265.935 585.906,265.277 589.927,264.792 590.600 C 262.181 594.226,264.903 597.243,269.844 596.199 C 278.159 594.442,277.798 594.607,278.952 592.036 C 279.514 590.782,280.100 588.686,280.254 587.378 C 280.407 586.070,280.923 584.100,281.399 583.000 C 281.876 581.900,282.490 579.650,282.764 578.000 C 283.038 576.350,283.428 574.245,283.631 573.323 C 283.834 572.400,284.000 571.148,284.000 570.540 C 284.000 569.932,284.606 567.446,285.346 565.017 C 287.045 559.440,287.596 557.127,287.614 555.494 C 287.628 554.233,288.289 551.028,289.201 547.800 C 289.623 546.307,289.802 545.604,290.827 541.400 C 291.041 540.520,291.464 538.090,291.766 536.000 C 292.539 530.649,293.402 526.988,294.070 526.220 C 294.251 526.011,294.400 525.462,294.400 525.000 C 294.400 524.538,294.562 523.989,294.759 523.780 C 294.957 523.571,295.310 520.880,295.545 517.800 C 295.993 511.923,296.800 508.341,297.978 507.000 C 298.850 506.007,299.392 503.851,300.188 498.200 C 300.779 494.007,300.966 493.102,302.003 489.400 C 302.250 488.520,302.617 487.023,302.819 486.073 C 303.021 485.124,303.293 484.173,303.424 483.961 C 303.555 483.749,303.990 481.286,304.390 478.488 C 304.790 475.689,305.508 472.320,305.986 471.000 C 307.180 467.699,307.869 465.000,308.181 462.400 C 308.639 458.589,309.952 452.021,310.380 451.400 C 311.023 450.468,312.060 445.917,312.797 440.800 C 313.360 436.893,313.909 434.521,314.600 433.017 C 314.908 432.348,315.354 430.630,315.592 429.200 C 315.830 427.770,316.234 425.742,316.490 424.692 C 316.979 422.686,316.516 420.459,315.372 419.315 C 314.807 418.750,314.000 418.625,314.000 419.102 M76.265 425.100 C 76.002 427.636,76.332 429.865,77.288 432.000 C 78.402 434.490,78.530 434.960,78.812 437.600 C 78.965 439.030,79.362 441.190,79.695 442.400 C 80.028 443.610,80.405 445.410,80.533 446.400 C 80.661 447.390,81.138 448.966,81.593 449.901 C 82.048 450.837,82.676 453.267,82.988 455.301 C 83.771 460.399,84.241 462.696,84.933 464.800 C 85.947 467.888,86.679 470.886,87.180 474.000 C 87.445 475.650,87.828 477.755,88.031 478.677 C 88.234 479.600,88.400 480.719,88.400 481.165 C 88.400 481.611,88.864 482.990,89.431 484.230 C 90.455 486.470,90.831 488.049,91.611 493.400 C 92.375 498.637,92.942 500.847,94.382 504.200 C 94.760 505.080,95.286 507.150,95.550 508.800 C 96.722 516.100,97.288 518.839,98.361 522.400 C 99.524 526.265,99.997 528.398,100.800 533.400 C 101.048 534.940,101.869 538.016,102.625 540.235 C 103.381 542.454,104.000 544.884,104.000 545.635 C 104.000 546.386,104.279 548.260,104.619 549.800 C 104.960 551.340,105.344 553.320,105.474 554.200 C 105.604 555.080,105.953 556.281,106.249 556.869 C 107.208 558.771,107.934 561.345,108.202 563.800 C 108.619 567.617,109.532 571.801,110.448 574.087 C 111.524 576.774,112.366 580.200,112.392 582.000 C 112.488 588.584,116.493 596.000,119.954 596.000 C 121.052 596.000,125.356 597.205,125.587 597.578 C 125.804 597.927,126.628 598.133,127.467 598.047 C 129.637 597.827,129.550 589.440,127.305 582.400 C 126.477 579.804,125.822 576.007,124.753 567.600 C 124.516 565.730,124.181 563.750,124.009 563.200 C 122.597 558.678,121.964 555.967,121.395 552.000 C 121.032 549.470,120.575 546.320,120.379 545.000 C 119.994 542.410,119.239 538.818,118.276 535.000 C 117.943 533.680,117.457 530.980,117.196 529.000 C 116.934 527.020,116.558 524.878,116.360 524.240 C 116.162 523.602,116.001 522.432,116.002 521.640 C 116.002 520.848,115.566 518.760,115.031 517.000 C 114.497 515.240,113.853 512.540,113.601 511.000 C 113.349 509.460,112.985 507.300,112.793 506.200 C 112.600 505.100,112.240 502.850,111.993 501.200 C 111.534 498.134,111.121 496.373,110.116 493.208 C 109.521 491.334,109.156 489.004,108.359 482.000 C 108.096 479.690,107.447 476.180,106.918 474.200 C 105.372 468.422,104.939 466.420,104.409 462.600 C 104.134 460.620,103.751 458.370,103.557 457.600 C 103.363 456.830,103.203 455.431,103.202 454.490 C 103.201 453.550,102.824 451.750,102.365 450.490 C 101.429 447.925,100.755 444.514,100.014 438.600 C 99.076 431.112,98.324 430.104,91.800 427.587 C 89.606 426.740,86.411 425.639,84.800 425.175 C 83.810 424.889,82.820 424.524,82.600 424.364 C 82.380 424.203,81.523 423.945,80.696 423.790 C 79.868 423.636,79.093 423.350,78.972 423.155 C 78.081 421.713,76.498 422.851,76.265 425.100 M263.000 434.652 C 262.120 434.960,261.040 435.372,260.600 435.568 C 259.467 436.075,256.553 436.728,254.144 437.017 C 250.413 437.464,248.800 440.706,248.800 447.758 C 248.800 448.345,248.432 449.918,247.982 451.254 C 247.323 453.209,247.118 455.136,246.926 461.141 C 246.683 468.772,246.309 470.548,244.582 472.275 C 243.096 473.762,242.732 477.029,243.795 479.352 C 245.106 482.217,245.060 485.827,243.606 494.400 C 242.982 498.078,242.499 503.521,241.794 514.800 C 241.133 525.376,240.692 530.037,239.994 533.800 C 239.065 538.811,238.302 546.019,237.603 556.400 C 236.977 565.685,236.442 571.157,235.804 574.800 C 235.476 576.670,235.034 579.910,234.821 582.000 C 234.607 584.090,234.248 587.510,234.023 589.600 C 232.848 600.508,233.496 603.546,236.944 603.288 C 244.841 602.697,248.800 599.874,248.800 594.834 C 248.800 594.001,248.963 592.798,249.162 592.160 C 249.361 591.522,249.725 588.840,249.972 586.200 C 250.771 577.627,251.277 573.852,252.007 571.000 C 252.401 569.460,252.838 567.030,252.978 565.600 C 253.118 564.170,253.400 561.830,253.604 560.400 C 253.808 558.970,254.165 555.820,254.397 553.400 C 255.041 546.676,255.579 542.909,256.395 539.400 C 257.399 535.085,257.890 531.499,258.611 523.200 C 259.184 516.605,259.593 513.686,260.404 510.400 C 261.286 506.825,261.588 505.119,261.994 501.400 C 262.235 499.200,262.605 496.050,262.818 494.400 C 263.031 492.750,263.204 489.937,263.203 488.149 C 263.200 485.104,263.858 482.382,264.726 481.846 C 265.248 481.523,265.925 476.816,266.402 470.200 C 267.033 461.451,268.078 453.610,269.416 447.600 C 270.453 442.938,270.654 435.743,269.773 434.770 C 268.928 433.837,265.505 433.777,263.000 434.652 M122.011 437.866 C 121.209 439.571,121.166 439.979,121.562 442.077 C 121.803 443.355,122.207 445.525,122.460 446.900 C 122.713 448.275,123.065 449.589,123.243 449.821 C 123.608 450.295,124.164 453.895,124.784 459.800 C 126.085 472.190,126.036 471.838,127.183 477.200 C 128.103 481.502,128.464 484.029,129.556 493.800 C 130.385 501.225,130.859 504.273,131.576 506.800 C 131.982 508.230,132.511 511.290,132.752 513.600 C 132.992 515.910,133.388 519.690,133.631 522.000 C 134.132 526.763,134.794 530.889,135.941 536.400 C 136.944 541.216,137.168 542.780,137.631 548.200 C 138.233 555.239,138.675 557.927,140.001 562.600 C 140.612 564.753,141.456 570.946,141.774 575.600 C 141.916 577.690,142.201 580.570,142.407 582.000 C 142.614 583.430,142.959 585.952,143.175 587.605 C 143.390 589.259,143.870 591.219,144.241 591.962 C 144.612 592.705,145.034 594.413,145.180 595.757 C 145.639 599.987,147.181 602.139,150.017 602.511 C 150.998 602.639,152.863 602.932,154.162 603.161 C 156.131 603.509,156.755 603.469,157.905 602.923 L 159.285 602.269 159.071 599.634 C 158.954 598.185,158.656 593.490,158.409 589.200 C 157.944 581.118,157.094 572.613,156.370 568.800 C 155.567 564.569,155.213 561.758,154.809 556.400 C 153.866 543.905,153.589 540.738,153.009 535.800 C 152.673 532.940,152.219 529.700,152.000 528.600 C 151.465 525.914,150.853 520.159,150.405 513.600 C 149.606 501.911,148.967 496.193,147.859 490.800 C 147.520 489.150,147.048 484.830,146.808 481.200 C 145.874 467.008,144.599 454.718,143.428 448.600 C 143.091 446.840,142.812 444.978,142.808 444.462 C 142.771 440.022,141.442 438.723,136.200 438.001 C 134.440 437.759,132.010 437.401,130.800 437.206 C 129.590 437.011,127.610 436.737,126.400 436.597 C 125.190 436.457,123.907 436.260,123.549 436.160 C 123.087 436.030,122.642 436.523,122.011 437.866 M167.000 442.209 C 165.900 442.515,164.884 442.773,164.743 442.782 C 164.132 442.824,164.037 444.276,164.421 447.719 C 165.253 455.177,165.715 462.190,166.814 484.000 C 167.815 503.888,168.039 508.057,168.326 512.201 C 168.494 514.622,168.767 516.823,168.933 517.092 C 169.343 517.754,170.108 530.444,171.209 554.800 C 171.746 566.682,172.808 580.679,173.576 586.000 C 173.814 587.650,174.163 591.893,174.352 595.429 C 174.857 604.874,175.366 605.600,181.488 605.600 C 185.930 605.600,186.476 605.369,187.893 602.895 C 188.399 602.011,188.249 587.652,187.195 536.000 C 186.968 524.890,186.787 511.678,186.791 506.640 C 186.796 501.602,186.625 493.142,186.411 487.840 C 186.197 482.538,185.832 471.450,185.598 463.200 C 185.032 443.168,185.121 443.880,183.053 442.871 C 180.834 441.788,170.107 441.346,167.000 442.209 M208.882 442.290 C 206.637 443.443,206.619 443.505,206.322 451.514 C 205.311 478.719,203.275 599.543,203.782 602.247 C 204.288 604.944,205.582 605.602,210.355 605.587 C 214.710 605.574,215.045 605.472,216.554 603.702 C 217.423 602.682,218.380 597.487,218.392 593.720 C 218.396 592.356,218.578 590.376,218.796 589.320 C 219.014 588.264,219.372 583.530,219.591 578.800 C 219.810 574.070,220.166 567.230,220.382 563.600 C 220.597 559.970,220.965 552.410,221.200 546.800 C 221.698 534.872,222.240 526.116,222.808 520.800 C 224.131 508.416,224.515 502.052,225.173 481.600 C 225.396 474.670,225.788 466.301,226.045 463.003 C 226.302 459.705,226.540 454.755,226.575 452.003 C 226.622 448.281,226.811 446.605,227.316 445.458 C 228.084 443.713,227.995 443.425,226.445 442.623 C 224.823 441.784,210.399 441.510,208.882 442.290 " stroke="none" fill="#fafafa" fill-rule="evenodd"></path></g></svg>