<svg id="svg" version="1.1" width="400" height="329.4117647058824" viewBox="0 0 400 329.4117647058824" xmlns="http://www.w3.org/2000/svg" xmlns:xlink="http://www.w3.org/1999/xlink" ><g id="svgg"><path id="path1" d="M0.000 164.745 L 0.000 329.489 200.000 329.489 L 400.000 329.489 400.000 164.745 L 400.000 0.000 200.000 0.000 L 0.000 0.000 0.000 164.745 M202.636 5.915 C 202.636 6.437,202.932 7.556,203.295 8.402 C 203.657 9.248,203.954 10.292,203.954 10.723 C 203.954 11.154,204.584 12.291,205.354 13.249 C 206.124 14.208,206.965 15.400,207.222 15.898 C 207.479 16.396,207.783 16.804,207.897 16.804 C 208.079 16.804,209.746 19.027,212.345 22.735 C 216.021 27.979,216.204 35.938,212.735 39.681 C 212.255 40.199,211.862 40.741,211.862 40.884 C 211.862 41.027,211.306 41.676,210.626 42.325 C 208.423 44.429,207.189 43.601,208.298 40.763 C 209.322 38.141,208.055 35.350,203.875 31.023 C 201.187 28.241,200.000 26.400,200.000 25.013 C 200.000 24.512,199.135 23.723,198.586 23.723 C 198.397 23.723,196.046 27.278,196.046 27.564 C 196.046 27.688,195.842 28.024,195.593 28.310 C 193.810 30.355,192.923 37.814,193.914 42.422 C 194.450 44.915,191.737 43.339,189.293 39.737 C 188.286 38.253,187.336 33.461,187.627 31.332 C 188.587 24.311,188.523 24.523,191.455 18.658 C 193.154 15.258,196.584 10.086,198.403 8.180 C 199.757 6.760,201.318 4.805,201.318 4.528 C 201.318 4.381,201.614 4.419,201.977 4.613 C 202.402 4.840,202.636 5.303,202.636 5.915 M272.751 4.679 C 272.969 4.896,273.147 5.825,273.147 6.743 C 273.147 7.782,273.395 8.876,273.806 9.641 C 274.168 10.317,274.465 11.150,274.465 11.491 C 274.465 11.831,274.688 12.296,274.962 12.523 C 275.682 13.121,279.077 17.686,279.077 18.057 C 279.077 18.230,279.306 18.561,279.586 18.793 C 280.503 19.554,283.616 24.313,284.037 25.597 C 284.264 26.288,284.685 27.216,284.974 27.660 C 286.891 30.605,284.324 39.626,280.868 42.088 C 280.420 42.408,279.737 42.928,279.350 43.245 C 278.963 43.563,278.522 43.822,278.368 43.822 C 277.948 43.822,278.032 40.931,278.460 40.666 C 279.979 39.728,277.872 34.964,274.318 31.301 C 271.497 28.393,270.407 26.818,270.030 25.105 C 269.525 22.802,268.674 23.232,266.896 26.689 C 266.663 27.142,266.251 27.766,265.981 28.075 C 264.537 29.733,263.848 32.938,263.801 38.216 C 263.751 43.863,263.491 44.442,261.744 42.800 C 258.524 39.776,256.482 32.407,257.872 28.830 C 258.154 28.105,258.588 26.697,258.836 25.700 C 259.665 22.370,260.814 19.570,262.209 17.481 C 262.969 16.342,263.591 15.256,263.591 15.068 C 263.591 14.879,263.962 14.238,264.415 13.645 C 264.868 13.051,265.239 12.439,265.239 12.286 C 265.239 12.133,265.498 11.773,265.815 11.486 C 266.133 11.198,266.763 10.483,267.216 9.895 C 267.669 9.308,268.892 7.942,269.934 6.860 C 270.976 5.778,271.829 4.756,271.829 4.588 C 271.829 4.163,272.280 4.208,272.751 4.679 M120.995 4.960 C 121.415 5.152,122.114 5.827,122.548 6.461 C 122.983 7.095,123.607 7.757,123.936 7.933 C 124.264 8.109,125.114 9.108,125.823 10.153 C 126.533 11.198,127.353 12.252,127.646 12.495 C 127.939 12.738,128.471 13.548,128.829 14.294 C 129.186 15.040,130.247 17.057,131.186 18.777 C 134.590 25.009,135.982 32.928,134.325 36.631 C 134.056 37.233,133.574 38.441,133.256 39.314 C 132.607 41.094,130.466 43.493,129.525 43.493 C 129.022 43.493,128.758 42.264,128.975 40.925 C 129.446 38.018,128.609 31.708,127.465 29.544 C 126.875 28.427,126.120 26.977,125.788 26.324 C 124.521 23.832,122.570 22.955,122.570 24.877 C 122.570 26.463,121.625 27.985,118.885 30.810 C 114.294 35.542,114.498 35.143,114.498 39.427 C 114.498 41.670,114.355 43.272,114.137 43.491 C 113.697 43.930,110.367 40.785,109.519 39.130 C 109.217 38.539,108.840 37.972,108.683 37.870 C 107.589 37.160,106.773 30.706,107.544 28.861 C 107.835 28.165,108.072 27.264,108.072 26.858 C 108.072 26.451,108.345 25.765,108.679 25.333 C 109.012 24.901,109.840 23.546,110.519 22.324 C 111.198 21.101,111.941 19.989,112.171 19.852 C 112.401 19.716,112.962 19.009,113.416 18.282 C 113.871 17.554,114.484 16.759,114.779 16.514 C 115.471 15.940,117.692 12.685,118.582 10.940 C 119.071 9.982,119.275 8.965,119.275 7.493 C 119.275 4.911,119.656 4.350,120.995 4.960 M125.283 42.957 C 125.416 43.161,125.528 43.886,125.530 44.568 C 125.533 45.249,125.832 46.877,126.194 48.185 C 126.557 49.493,126.853 51.030,126.853 51.600 C 126.853 53.998,132.179 53.680,135.203 51.102 C 136.723 49.806,136.738 50.054,136.738 76.603 C 136.738 104.054,136.560 102.142,139.121 102.142 C 141.052 102.142,141.162 102.340,141.176 105.836 C 141.192 109.803,144.145 109.484,108.190 109.397 C 105.003 109.389,105.022 109.412,105.089 105.618 C 105.145 102.439,105.356 102.142,107.553 102.142 C 108.491 102.142,109.437 101.964,109.654 101.746 C 110.204 101.197,110.207 74.570,109.658 70.446 C 109.342 68.069,109.355 66.767,109.730 63.654 C 109.986 61.536,110.199 57.801,110.204 55.354 L 110.214 50.906 111.149 50.799 C 111.664 50.740,112.331 50.898,112.632 51.150 C 113.866 52.181,117.949 53.507,118.878 53.178 C 119.888 52.821,119.918 52.457,119.438 46.452 C 119.149 42.834,119.260 42.626,121.588 42.417 C 123.438 42.251,124.968 42.475,125.283 42.957 M202.192 42.696 C 203.773 42.933,204.015 44.413,203.130 48.435 C 202.565 51.004,202.507 52.929,202.987 53.226 C 203.391 53.476,209.777 51.512,210.063 51.050 C 210.394 50.513,211.495 50.716,211.850 51.379 C 212.076 51.802,212.191 60.370,212.191 76.879 C 212.191 104.562,211.970 102.142,214.501 102.142 C 216.671 102.142,217.731 105.677,216.422 108.551 L 216.039 109.390 198.503 109.390 L 180.966 109.390 180.768 108.649 C 180.466 107.522,180.532 103.356,180.860 102.838 C 181.022 102.582,181.925 102.310,182.914 102.220 C 183.885 102.131,184.864 101.911,185.091 101.730 C 185.414 101.473,185.502 95.978,185.502 76.256 C 185.502 59.560,185.615 51.040,185.838 50.903 C 186.022 50.789,187.278 51.220,188.630 51.862 C 191.160 53.062,195.092 53.792,195.497 53.136 C 195.607 52.959,195.795 51.346,195.916 49.553 C 196.037 47.760,196.290 45.997,196.480 45.634 C 196.669 45.272,196.792 44.490,196.753 43.898 C 196.647 42.261,197.720 42.024,202.192 42.696 M271.417 42.500 C 273.210 42.505,274.302 43.466,273.986 44.760 C 272.314 51.590,272.550 53.781,274.881 53.089 C 276.608 52.576,279.806 51.381,280.731 50.903 C 282.466 50.006,282.407 49.105,282.382 76.100 C 282.357 104.241,282.147 102.142,284.986 102.142 C 287.674 102.142,287.931 102.439,288.040 105.675 C 288.181 109.844,289.957 109.470,269.841 109.497 C 249.820 109.524,251.730 109.943,251.730 105.530 C 251.730 102.504,252.013 102.142,254.376 102.142 C 256.074 102.142,256.047 102.585,255.991 75.923 C 255.962 62.235,256.029 50.945,256.140 50.834 C 256.250 50.724,257.120 51.012,258.072 51.475 C 265.240 54.961,266.360 54.040,266.962 44.165 C 267.057 42.605,267.803 42.043,269.357 42.360 C 269.720 42.435,270.647 42.497,271.417 42.500 M305.901 117.285 C 307.334 117.473,309.210 117.628,310.069 117.628 C 311.042 117.628,312.296 117.937,313.394 118.448 C 314.363 118.899,315.570 119.270,316.076 119.272 C 316.581 119.274,317.552 119.559,318.233 119.907 C 318.914 120.254,320.021 120.641,320.694 120.768 C 321.366 120.894,322.249 121.246,322.655 121.550 C 323.061 121.854,324.357 122.593,325.535 123.193 C 332.232 126.604,336.433 130.170,343.044 138.056 C 344.502 139.795,344.513 139.811,345.265 141.376 C 345.650 142.177,346.331 143.427,346.777 144.152 C 347.223 144.876,347.825 145.988,348.115 146.623 C 349.519 149.695,349.858 150.509,350.245 151.730 C 350.475 152.455,350.775 153.196,350.913 153.377 C 351.051 153.558,351.391 154.819,351.670 156.178 C 351.949 157.537,352.373 159.094,352.612 159.638 C 352.966 160.441,353.066 170.496,353.143 213.233 C 353.225 258.208,353.307 265.895,353.707 266.228 C 354.054 266.516,359.542 266.630,374.930 266.669 C 398.202 266.728,397.047 266.592,395.313 269.073 C 394.697 269.954,394.098 270.929,393.981 271.240 C 393.865 271.550,393.119 272.811,392.324 274.041 C 391.529 275.270,390.091 277.611,389.128 279.242 C 388.166 280.873,387.030 282.627,386.605 283.139 C 386.180 283.651,385.832 284.208,385.832 284.377 C 385.832 284.546,384.854 286.117,383.658 287.868 C 382.463 289.619,381.400 291.286,381.296 291.572 C 381.192 291.858,380.762 292.511,380.339 293.024 C 379.917 293.536,379.572 294.108,379.572 294.294 C 379.572 294.481,379.144 295.174,378.621 295.834 C 377.448 297.316,375.791 299.958,375.100 301.446 C 374.815 302.061,373.999 303.352,373.288 304.315 C 372.576 305.279,371.993 306.162,371.993 306.277 C 371.993 306.393,370.898 308.141,369.559 310.163 C 368.221 312.185,366.923 314.240,366.676 314.731 C 365.858 316.358,363.305 320.408,362.254 321.746 C 361.685 322.471,360.955 323.526,360.632 324.089 C 359.774 325.585,364.220 325.528,246.787 325.555 C 188.163 325.568,139.534 325.681,138.723 325.805 C 137.912 325.928,135.762 325.927,133.946 325.802 C 128.646 325.437,87.796 325.494,86.813 325.868 C 85.710 326.287,79.709 326.293,78.612 325.876 C 78.113 325.686,70.349 325.543,59.436 325.521 C 49.350 325.502,40.751 325.354,40.328 325.193 C 39.685 324.949,35.914 319.754,35.914 319.114 C 35.914 319.006,35.319 318.111,34.591 317.126 C 33.863 316.140,33.113 314.923,32.925 314.421 C 32.640 313.663,29.794 309.052,28.904 307.908 C 28.764 307.727,28.184 306.837,27.617 305.931 C 27.050 305.025,25.963 303.320,25.201 302.142 C 23.599 299.665,21.355 296.088,17.969 290.610 C 17.577 289.975,16.534 288.344,15.651 286.985 C 14.768 285.626,13.724 283.995,13.332 283.361 C 12.939 282.727,11.966 281.165,11.169 279.890 C 10.372 278.615,9.572 277.333,9.390 277.041 C 9.209 276.748,8.576 275.814,7.983 274.965 C 7.390 274.117,6.610 272.878,6.250 272.214 C 5.415 270.674,4.966 269.950,4.009 268.601 C 2.514 266.494,1.660 266.575,25.436 266.588 C 37.216 266.595,46.916 266.538,46.991 266.463 C 47.066 266.388,47.133 244.768,47.139 218.419 C 47.145 192.069,47.285 168.731,47.448 166.557 C 47.787 162.054,48.854 155.711,49.379 155.078 C 49.573 154.844,49.944 153.746,50.202 152.637 C 50.461 151.529,50.910 150.282,51.201 149.867 C 51.492 149.452,51.730 148.829,51.730 148.483 C 51.730 148.137,52.063 147.319,52.471 146.666 C 53.609 144.845,53.908 144.308,54.980 142.175 C 55.527 141.087,56.557 139.593,57.270 138.853 C 57.983 138.114,58.742 137.180,58.957 136.778 C 59.634 135.514,63.516 131.442,65.818 129.583 C 70.573 125.741,72.680 124.319,75.906 122.775 C 80.268 120.686,82.895 119.588,84.020 119.383 C 84.473 119.301,85.823 118.935,87.019 118.570 C 93.022 116.738,88.985 116.798,200.659 116.873 C 269.518 116.919,304.152 117.054,305.901 117.285 M273.970 178.801 C 273.608 178.900,273.089 179.159,272.817 179.377 C 272.074 179.973,270.568 180.560,269.782 180.560 C 269.399 180.560,267.783 181.227,266.193 182.043 C 264.602 182.858,262.870 183.526,262.344 183.526 C 261.789 183.526,261.124 183.817,260.759 184.221 C 260.414 184.603,259.287 185.342,258.255 185.864 C 257.223 186.385,255.741 187.263,254.960 187.815 C 254.180 188.367,253.175 189.074,252.726 189.385 C 252.278 189.696,250.872 190.951,249.602 192.175 C 248.332 193.398,247.107 194.399,246.879 194.399 C 246.651 194.399,245.659 195.103,244.673 195.964 C 242.331 198.010,239.767 200.001,238.416 200.824 C 236.459 202.015,235.434 202.742,234.432 203.650 C 232.639 205.274,227.959 208.262,225.740 209.199 C 218.924 212.077,218.028 212.285,213.674 211.988 C 208.023 211.603,201.149 206.746,194.144 198.188 C 191.339 194.761,188.144 191.137,186.573 189.600 C 185.622 188.669,184.843 187.750,184.843 187.557 C 184.843 187.153,181.748 185.173,181.115 185.173 C 180.882 185.173,180.519 185.000,180.307 184.788 C 180.014 184.495,179.509 184.502,178.182 184.818 C 176.623 185.190,174.508 185.180,170.057 184.779 C 168.875 184.672,168.732 184.806,167.866 186.820 C 167.594 187.455,167.234 188.196,167.067 188.468 C 166.900 188.740,166.292 190.074,165.716 191.433 C 165.140 192.792,164.395 194.433,164.061 195.078 C 163.727 195.723,163.362 196.909,163.249 197.714 C 163.135 198.518,162.758 199.871,162.411 200.720 C 162.064 201.569,161.774 202.607,161.768 203.026 C 161.763 203.446,161.459 204.605,161.093 205.601 C 160.728 206.598,160.219 208.533,159.961 209.902 C 159.704 211.271,159.266 212.934,158.989 213.598 C 158.711 214.262,158.484 215.270,158.484 215.837 C 158.484 216.405,158.263 217.336,157.992 217.907 C 157.529 218.882,156.728 221.404,155.672 225.206 C 155.162 227.042,154.095 229.388,152.021 233.237 C 147.000 242.554,138.214 241.935,133.897 231.960 C 132.806 229.439,130.148 221.296,130.148 220.474 C 130.148 220.075,129.922 219.206,129.645 218.544 C 129.368 217.882,128.921 215.866,128.650 214.064 C 128.379 212.263,128.073 210.652,127.970 210.485 C 127.867 210.317,127.438 208.743,127.018 206.985 C 126.598 205.227,126.096 203.196,125.903 202.471 C 125.709 201.746,125.548 200.640,125.543 200.013 C 125.535 198.823,124.331 194.870,123.030 191.763 C 122.613 190.766,122.171 189.580,122.049 189.127 C 120.603 183.784,111.577 180.853,108.392 184.691 C 108.172 184.956,107.848 185.173,107.672 185.173 C 107.145 185.173,103.544 188.070,99.957 191.381 C 88.932 201.556,83.963 203.835,76.113 202.321 C 75.070 202.120,74.560 202.149,74.389 202.418 C 73.735 203.446,74.110 261.248,74.772 261.603 C 76.097 262.312,325.335 262.053,325.979 261.341 C 326.933 260.287,326.801 204.724,325.841 203.504 C 325.408 202.954,324.835 202.635,324.276 202.634 C 323.791 202.633,323.023 202.437,322.570 202.199 C 321.853 201.823,316.723 199.088,314.333 197.809 C 313.880 197.567,313.407 197.367,313.282 197.366 C 313.158 197.365,312.571 196.922,311.979 196.381 C 311.388 195.841,310.378 195.150,309.735 194.846 C 309.092 194.541,308.196 194.039,307.743 193.730 C 305.391 192.122,302.042 190.061,301.365 189.804 C 300.942 189.643,300.387 189.302,300.131 189.046 C 299.875 188.790,299.279 188.370,298.806 188.112 C 297.507 187.404,294.889 185.904,293.410 185.021 C 292.685 184.587,291.330 183.848,290.398 183.378 C 289.466 182.907,288.196 182.178,287.575 181.757 C 286.955 181.336,286.012 180.883,285.480 180.750 C 284.949 180.617,284.003 180.120,283.378 179.644 C 282.241 178.779,276.077 178.227,273.970 178.801 " stroke="none" fill="#fbfbfb" fill-rule="evenodd"></path><path id="path0" d="M201.318 4.528 C 201.318 4.805,199.757 6.760,198.403 8.180 C 196.584 10.086,193.154 15.258,191.455 18.658 C 188.523 24.523,188.587 24.311,187.627 31.332 C 187.336 33.461,188.286 38.253,189.293 39.737 C 191.737 43.339,194.450 44.915,193.914 42.422 C 192.923 37.814,193.810 30.355,195.593 28.310 C 195.842 28.024,196.046 27.688,196.046 27.564 C 196.046 27.278,198.397 23.723,198.586 23.723 C 199.135 23.723,200.000 24.512,200.000 25.013 C 200.000 26.400,201.187 28.241,203.875 31.023 C 208.055 35.350,209.322 38.141,208.298 40.763 C 207.189 43.601,208.423 44.429,210.626 42.325 C 211.306 41.676,211.862 41.027,211.862 40.884 C 211.862 40.741,212.255 40.199,212.735 39.681 C 216.204 35.938,216.021 27.979,212.345 22.735 C 209.746 19.027,208.079 16.804,207.897 16.804 C 207.783 16.804,207.479 16.396,207.222 15.898 C 206.965 15.400,206.124 14.208,205.354 13.249 C 204.584 12.291,203.954 11.154,203.954 10.723 C 203.954 10.292,203.657 9.248,203.295 8.402 C 202.932 7.556,202.636 6.437,202.636 5.915 C 202.636 5.303,202.402 4.840,201.977 4.613 C 201.614 4.419,201.318 4.381,201.318 4.528 M271.829 4.588 C 271.829 4.756,270.976 5.778,269.934 6.860 C 268.892 7.942,267.669 9.308,267.216 9.895 C 266.763 10.483,266.133 11.198,265.815 11.486 C 265.498 11.773,265.239 12.133,265.239 12.286 C 265.239 12.439,264.868 13.051,264.415 13.645 C 263.962 14.238,263.591 14.879,263.591 15.068 C 263.591 15.256,262.969 16.342,262.209 17.481 C 260.814 19.570,259.665 22.370,258.836 25.700 C 258.588 26.697,258.154 28.105,257.872 28.830 C 256.482 32.407,258.524 39.776,261.744 42.800 C 263.491 44.442,263.751 43.863,263.801 38.216 C 263.848 32.938,264.537 29.733,265.981 28.075 C 266.251 27.766,266.663 27.142,266.896 26.689 C 268.674 23.232,269.525 22.802,270.030 25.105 C 270.407 26.818,271.497 28.393,274.318 31.301 C 277.872 34.964,279.979 39.728,278.460 40.666 C 278.032 40.931,277.948 43.822,278.368 43.822 C 278.522 43.822,278.963 43.563,279.350 43.245 C 279.737 42.928,280.420 42.408,280.868 42.088 C 284.324 39.626,286.891 30.605,284.974 27.660 C 284.685 27.216,284.264 26.288,284.037 25.597 C 283.616 24.313,280.503 19.554,279.586 18.793 C 279.306 18.561,279.077 18.230,279.077 18.057 C 279.077 17.686,275.682 13.121,274.962 12.523 C 274.688 12.296,274.465 11.831,274.465 11.491 C 274.465 11.150,274.168 10.317,273.806 9.641 C 273.395 8.876,273.147 7.782,273.147 6.743 C 273.147 5.208,272.750 4.283,272.092 4.283 C 271.947 4.283,271.829 4.420,271.829 4.588 M119.671 5.008 C 119.446 5.233,119.275 6.307,119.275 7.493 C 119.275 8.965,119.071 9.982,118.582 10.940 C 117.692 12.685,115.471 15.940,114.779 16.514 C 114.484 16.759,113.871 17.554,113.416 18.282 C 112.962 19.009,112.401 19.716,112.171 19.852 C 111.941 19.989,111.198 21.101,110.519 22.324 C 109.840 23.546,109.012 24.901,108.679 25.333 C 108.345 25.765,108.072 26.451,108.072 26.858 C 108.072 27.264,107.835 28.165,107.544 28.861 C 106.773 30.706,107.589 37.160,108.683 37.870 C 108.840 37.972,109.217 38.539,109.519 39.130 C 110.367 40.785,113.697 43.930,114.137 43.491 C 114.355 43.272,114.498 41.670,114.498 39.427 C 114.498 35.143,114.294 35.542,118.885 30.810 C 121.625 27.985,122.570 26.463,122.570 24.877 C 122.570 22.955,124.521 23.832,125.788 26.324 C 126.120 26.977,126.875 28.427,127.465 29.544 C 128.609 31.708,129.446 38.018,128.975 40.925 C 128.758 42.264,129.022 43.493,129.525 43.493 C 130.466 43.493,132.607 41.094,133.256 39.314 C 133.574 38.441,134.056 37.233,134.325 36.631 C 135.982 32.928,134.590 25.009,131.186 18.777 C 130.247 17.057,129.186 15.040,128.829 14.294 C 128.471 13.548,127.939 12.738,127.646 12.495 C 127.353 12.252,126.533 11.198,125.823 10.153 C 125.114 9.108,124.264 8.109,123.936 7.933 C 123.607 7.757,122.983 7.095,122.548 6.461 C 122.114 5.827,121.415 5.152,120.995 4.960 C 120.060 4.534,120.147 4.531,119.671 5.008 M121.588 42.417 C 119.260 42.626,119.149 42.834,119.438 46.452 C 119.918 52.457,119.888 52.821,118.878 53.178 C 117.949 53.507,113.866 52.181,112.632 51.150 C 112.331 50.898,111.664 50.740,111.149 50.799 L 110.214 50.906 110.204 55.354 C 110.199 57.801,109.986 61.536,109.730 63.654 C 109.355 66.767,109.342 68.069,109.658 70.446 C 110.207 74.570,110.204 101.197,109.654 101.746 C 109.437 101.964,108.491 102.142,107.553 102.142 C 105.356 102.142,105.145 102.439,105.089 105.618 C 105.022 109.412,105.003 109.389,108.190 109.397 C 144.145 109.484,141.192 109.803,141.176 105.836 C 141.162 102.340,141.052 102.142,139.121 102.142 C 136.560 102.142,136.738 104.054,136.738 76.603 C 136.738 50.054,136.723 49.806,135.203 51.102 C 132.179 53.680,126.853 53.998,126.853 51.600 C 126.853 51.030,126.557 49.493,126.194 48.185 C 125.832 46.877,125.533 45.249,125.530 44.568 C 125.522 42.538,124.776 42.131,121.588 42.417 M197.436 42.528 C 196.841 42.759,196.698 43.046,196.753 43.898 C 196.792 44.490,196.669 45.272,196.480 45.634 C 196.290 45.997,196.037 47.760,195.916 49.553 C 195.795 51.346,195.607 52.959,195.497 53.136 C 195.092 53.792,191.160 53.062,188.630 51.862 C 187.278 51.220,186.022 50.789,185.838 50.903 C 185.615 51.040,185.502 59.560,185.502 76.256 C 185.502 95.978,185.414 101.473,185.091 101.730 C 184.864 101.911,183.885 102.131,182.914 102.220 C 181.925 102.310,181.022 102.582,180.860 102.838 C 180.532 103.356,180.466 107.522,180.768 108.649 L 180.966 109.390 198.503 109.390 L 216.039 109.390 216.422 108.551 C 217.731 105.677,216.671 102.142,214.501 102.142 C 211.970 102.142,212.191 104.562,212.191 76.879 C 212.191 60.370,212.076 51.802,211.850 51.379 C 211.495 50.716,210.394 50.513,210.063 51.050 C 209.777 51.512,203.391 53.476,202.987 53.226 C 202.507 52.929,202.565 51.004,203.130 48.435 C 204.015 44.413,203.773 42.933,202.192 42.696 C 199.621 42.310,198.132 42.257,197.436 42.528 M267.875 42.460 C 267.175 42.660,267.038 42.916,266.962 44.165 C 266.360 54.040,265.240 54.961,258.072 51.475 C 257.120 51.012,256.250 50.724,256.140 50.834 C 256.029 50.945,255.962 62.235,255.991 75.923 C 256.047 102.585,256.074 102.142,254.376 102.142 C 252.013 102.142,251.730 102.504,251.730 105.530 C 251.730 109.943,249.820 109.524,269.841 109.497 C 289.957 109.470,288.181 109.844,288.040 105.675 C 287.931 102.439,287.674 102.142,284.986 102.142 C 282.147 102.142,282.357 104.241,282.382 76.100 C 282.407 49.105,282.466 50.006,280.731 50.903 C 279.806 51.381,276.608 52.576,274.881 53.089 C 272.550 53.781,272.314 51.590,273.986 44.760 C 274.302 43.466,273.210 42.505,271.417 42.500 C 270.647 42.497,269.720 42.435,269.357 42.360 C 268.995 42.286,268.328 42.331,267.875 42.460 M93.609 117.355 C 91.182 117.658,88.216 118.204,87.019 118.570 C 85.823 118.935,84.473 119.301,84.020 119.383 C 82.895 119.588,80.268 120.686,75.906 122.775 C 72.680 124.319,70.573 125.741,65.818 129.583 C 63.516 131.442,59.634 135.514,58.957 136.778 C 58.742 137.180,57.983 138.114,57.270 138.853 C 56.557 139.593,55.527 141.087,54.980 142.175 C 53.908 144.308,53.609 144.845,52.471 146.666 C 52.063 147.319,51.730 148.137,51.730 148.483 C 51.730 148.829,51.492 149.452,51.201 149.867 C 50.910 150.282,50.461 151.529,50.202 152.637 C 49.944 153.746,49.573 154.844,49.379 155.078 C 48.854 155.711,47.787 162.054,47.448 166.557 C 47.285 168.731,47.145 192.069,47.139 218.419 C 47.133 244.768,47.066 266.388,46.991 266.463 C 46.916 266.538,37.216 266.595,25.436 266.588 C 1.660 266.575,2.514 266.494,4.009 268.601 C 4.966 269.950,5.415 270.674,6.250 272.214 C 6.610 272.878,7.390 274.117,7.983 274.965 C 8.576 275.814,9.209 276.748,9.390 277.041 C 9.572 277.333,10.372 278.615,11.169 279.890 C 11.966 281.165,12.939 282.727,13.332 283.361 C 13.724 283.995,14.768 285.626,15.651 286.985 C 16.534 288.344,17.577 289.975,17.969 290.610 C 21.355 296.088,23.599 299.665,25.201 302.142 C 25.963 303.320,27.050 305.025,27.617 305.931 C 28.184 306.837,28.764 307.727,28.904 307.908 C 29.794 309.052,32.640 313.663,32.925 314.421 C 33.113 314.923,33.863 316.140,34.591 317.126 C 35.319 318.111,35.914 319.006,35.914 319.114 C 35.914 319.754,39.685 324.949,40.328 325.193 C 40.751 325.354,49.350 325.502,59.436 325.521 C 70.349 325.543,78.113 325.686,78.612 325.876 C 79.709 326.293,85.710 326.287,86.813 325.868 C 87.796 325.494,128.646 325.437,133.946 325.802 C 135.762 325.927,137.912 325.928,138.723 325.805 C 139.534 325.681,188.163 325.568,246.787 325.555 C 364.220 325.528,359.774 325.585,360.632 324.089 C 360.955 323.526,361.685 322.471,362.254 321.746 C 363.305 320.408,365.858 316.358,366.676 314.731 C 366.923 314.240,368.221 312.185,369.559 310.163 C 370.898 308.141,371.993 306.393,371.993 306.277 C 371.993 306.162,372.576 305.279,373.288 304.315 C 373.999 303.352,374.815 302.061,375.100 301.446 C 375.791 299.958,377.448 297.316,378.621 295.834 C 379.144 295.174,379.572 294.481,379.572 294.294 C 379.572 294.108,379.917 293.536,380.339 293.024 C 380.762 292.511,381.192 291.858,381.296 291.572 C 381.400 291.286,382.463 289.619,383.658 287.868 C 384.854 286.117,385.832 284.546,385.832 284.377 C 385.832 284.208,386.180 283.651,386.605 283.139 C 387.030 282.627,388.166 280.873,389.128 279.242 C 390.091 277.611,391.529 275.270,392.324 274.041 C 393.119 272.811,393.865 271.550,393.981 271.240 C 394.098 270.929,394.697 269.954,395.313 269.073 C 397.047 266.592,398.202 266.728,374.930 266.669 C 359.542 266.630,354.054 266.516,353.707 266.228 C 353.307 265.895,353.225 258.208,353.143 213.233 C 353.066 170.496,352.966 160.441,352.612 159.638 C 352.373 159.094,351.949 157.537,351.670 156.178 C 351.391 154.819,351.051 153.558,350.913 153.377 C 350.775 153.196,350.475 152.455,350.245 151.730 C 349.858 150.509,349.519 149.695,348.115 146.623 C 347.825 145.988,347.223 144.876,346.777 144.152 C 346.331 143.427,345.650 142.177,345.265 141.376 C 344.513 139.811,344.502 139.795,343.044 138.056 C 336.433 130.170,332.232 126.604,325.535 123.193 C 324.357 122.593,323.061 121.854,322.655 121.550 C 322.249 121.246,321.366 120.894,320.694 120.768 C 320.021 120.641,318.914 120.254,318.233 119.907 C 317.552 119.559,316.581 119.274,316.076 119.272 C 315.570 119.270,314.363 118.899,313.394 118.448 C 312.296 117.937,311.042 117.628,310.069 117.628 C 309.210 117.628,307.334 117.473,305.901 117.285 C 300.888 116.625,98.926 116.691,93.609 117.355 M283.378 179.644 C 284.003 180.120,284.949 180.617,285.480 180.750 C 286.012 180.883,286.955 181.336,287.575 181.757 C 288.196 182.178,289.466 182.907,290.398 183.378 C 291.330 183.848,292.685 184.587,293.410 185.021 C 294.889 185.904,297.507 187.404,298.806 188.112 C 299.279 188.370,299.875 188.790,300.131 189.046 C 300.387 189.302,300.942 189.643,301.365 189.804 C 302.042 190.061,305.391 192.122,307.743 193.730 C 308.196 194.039,309.092 194.541,309.735 194.846 C 310.378 195.150,311.388 195.841,311.979 196.381 C 312.571 196.922,313.158 197.365,313.282 197.366 C 313.407 197.367,313.880 197.567,314.333 197.809 C 316.723 199.088,321.853 201.823,322.570 202.199 C 323.023 202.437,323.791 202.633,324.276 202.634 C 324.835 202.635,325.408 202.954,325.841 203.504 C 326.801 204.724,326.933 260.287,325.979 261.341 C 325.335 262.053,76.097 262.312,74.772 261.603 C 74.110 261.248,73.735 203.446,74.389 202.418 C 74.560 202.149,75.070 202.120,76.113 202.321 C 83.963 203.835,88.932 201.556,99.957 191.381 C 103.544 188.070,107.145 185.173,107.672 185.173 C 107.848 185.173,108.172 184.956,108.392 184.691 C 111.577 180.853,120.603 183.784,122.049 189.127 C 122.171 189.580,122.613 190.766,123.030 191.763 C 124.331 194.870,125.535 198.823,125.543 200.013 C 125.548 200.640,125.709 201.746,125.903 202.471 C 126.096 203.196,126.598 205.227,127.018 206.985 C 127.438 208.743,127.867 210.317,127.970 210.485 C 128.073 210.652,128.379 212.263,128.650 214.064 C 128.921 215.866,129.368 217.882,129.645 218.544 C 129.922 219.206,130.148 220.075,130.148 220.474 C 130.148 221.296,132.806 229.439,133.897 231.960 C 138.214 241.935,147.000 242.554,152.021 233.237 C 154.095 229.388,155.162 227.042,155.672 225.206 C 156.728 221.404,157.529 218.882,157.992 217.907 C 158.263 217.336,158.484 216.405,158.484 215.837 C 158.484 215.270,158.711 214.262,158.989 213.598 C 159.266 212.934,159.704 211.271,159.961 209.902 C 160.219 208.533,160.728 206.598,161.093 205.601 C 161.459 204.605,161.763 203.446,161.768 203.026 C 161.774 202.607,162.064 201.569,162.411 200.720 C 162.758 199.871,163.135 198.518,163.249 197.714 C 163.362 196.909,163.727 195.723,164.061 195.078 C 164.395 194.433,165.140 192.792,165.716 191.433 C 166.292 190.074,166.900 188.740,167.067 188.468 C 167.234 188.196,167.594 187.455,167.866 186.820 C 168.732 184.806,168.875 184.672,170.057 184.779 C 174.508 185.180,176.623 185.190,178.182 184.818 C 179.509 184.502,180.014 184.495,180.307 184.788 C 180.519 185.000,180.882 185.173,181.115 185.173 C 181.748 185.173,184.843 187.153,184.843 187.557 C 184.843 187.750,185.622 188.669,186.573 189.600 C 188.144 191.137,191.339 194.761,194.144 198.188 C 201.149 206.746,208.023 211.603,213.674 211.988 C 218.028 212.285,218.924 212.077,225.740 209.199 C 227.959 208.262,232.639 205.274,234.432 203.650 C 235.434 202.742,236.459 202.015,238.416 200.824 C 239.767 200.001,242.331 198.010,244.673 195.964 C 245.659 195.103,246.651 194.399,246.879 194.399 C 247.107 194.399,248.332 193.398,249.602 192.175 C 250.872 190.951,252.278 189.696,252.726 189.385 C 253.175 189.074,254.180 188.367,254.960 187.815 C 255.741 187.263,257.223 186.385,258.255 185.864 C 259.287 185.342,260.414 184.603,260.759 184.221 C 261.124 183.817,261.789 183.526,262.344 183.526 C 262.870 183.526,264.602 182.858,266.193 182.043 C 267.783 181.227,269.399 180.560,269.782 180.560 C 270.568 180.560,272.074 179.973,272.817 179.377 C 274.297 178.190,281.713 178.377,283.378 179.644 " stroke="none" fill="#07070d" fill-rule="evenodd"></path><path id="path1" d="M0.000 164.745 L 0.000 329.489 200.000 329.489 L 400.000 329.489 400.000 164.745 L 400.000 0.000 200.000 0.000 L 0.000 0.000 0.000 164.745 M202.636 5.915 C 202.636 6.437,202.932 7.556,203.295 8.402 C 203.657 9.248,203.954 10.292,203.954 10.723 C 203.954 11.154,204.584 12.291,205.354 13.249 C 206.124 14.208,206.965 15.400,207.222 15.898 C 207.479 16.396,207.783 16.804,207.897 16.804 C 208.079 16.804,209.746 19.027,212.345 22.735 C 216.021 27.979,216.204 35.938,212.735 39.681 C 212.255 40.199,211.862 40.741,211.862 40.884 C 211.862 41.027,211.306 41.676,210.626 42.325 C 208.423 44.429,207.189 43.601,208.298 40.763 C 209.322 38.141,208.055 35.350,203.875 31.023 C 201.187 28.241,200.000 26.400,200.000 25.013 C 200.000 24.512,199.135 23.723,198.586 23.723 C 198.397 23.723,196.046 27.278,196.046 27.564 C 196.046 27.688,195.842 28.024,195.593 28.310 C 193.810 30.355,192.923 37.814,193.914 42.422 C 194.450 44.915,191.737 43.339,189.293 39.737 C 188.286 38.253,187.336 33.461,187.627 31.332 C 188.587 24.311,188.523 24.523,191.455 18.658 C 193.154 15.258,196.584 10.086,198.403 8.180 C 199.757 6.760,201.318 4.805,201.318 4.528 C 201.318 4.381,201.614 4.419,201.977 4.613 C 202.402 4.840,202.636 5.303,202.636 5.915 M272.751 4.679 C 272.969 4.896,273.147 5.825,273.147 6.743 C 273.147 7.782,273.395 8.876,273.806 9.641 C 274.168 10.317,274.465 11.150,274.465 11.491 C 274.465 11.831,274.688 12.296,274.962 12.523 C 275.682 13.121,279.077 17.686,279.077 18.057 C 279.077 18.230,279.306 18.561,279.586 18.793 C 280.503 19.554,283.616 24.313,284.037 25.597 C 284.264 26.288,284.685 27.216,284.974 27.660 C 286.891 30.605,284.324 39.626,280.868 42.088 C 280.420 42.408,279.737 42.928,279.350 43.245 C 278.963 43.563,278.522 43.822,278.368 43.822 C 277.948 43.822,278.032 40.931,278.460 40.666 C 279.979 39.728,277.872 34.964,274.318 31.301 C 271.497 28.393,270.407 26.818,270.030 25.105 C 269.525 22.802,268.674 23.232,266.896 26.689 C 266.663 27.142,266.251 27.766,265.981 28.075 C 264.537 29.733,263.848 32.938,263.801 38.216 C 263.751 43.863,263.491 44.442,261.744 42.800 C 258.524 39.776,256.482 32.407,257.872 28.830 C 258.154 28.105,258.588 26.697,258.836 25.700 C 259.665 22.370,260.814 19.570,262.209 17.481 C 262.969 16.342,263.591 15.256,263.591 15.068 C 263.591 14.879,263.962 14.238,264.415 13.645 C 264.868 13.051,265.239 12.439,265.239 12.286 C 265.239 12.133,265.498 11.773,265.815 11.486 C 266.133 11.198,266.763 10.483,267.216 9.895 C 267.669 9.308,268.892 7.942,269.934 6.860 C 270.976 5.778,271.829 4.756,271.829 4.588 C 271.829 4.163,272.280 4.208,272.751 4.679 M120.995 4.960 C 121.415 5.152,122.114 5.827,122.548 6.461 C 122.983 7.095,123.607 7.757,123.936 7.933 C 124.264 8.109,125.114 9.108,125.823 10.153 C 126.533 11.198,127.353 12.252,127.646 12.495 C 127.939 12.738,128.471 13.548,128.829 14.294 C 129.186 15.040,130.247 17.057,131.186 18.777 C 134.590 25.009,135.982 32.928,134.325 36.631 C 134.056 37.233,133.574 38.441,133.256 39.314 C 132.607 41.094,130.466 43.493,129.525 43.493 C 129.022 43.493,128.758 42.264,128.975 40.925 C 129.446 38.018,128.609 31.708,127.465 29.544 C 126.875 28.427,126.120 26.977,125.788 26.324 C 124.521 23.832,122.570 22.955,122.570 24.877 C 122.570 26.463,121.625 27.985,118.885 30.810 C 114.294 35.542,114.498 35.143,114.498 39.427 C 114.498 41.670,114.355 43.272,114.137 43.491 C 113.697 43.930,110.367 40.785,109.519 39.130 C 109.217 38.539,108.840 37.972,108.683 37.870 C 107.589 37.160,106.773 30.706,107.544 28.861 C 107.835 28.165,108.072 27.264,108.072 26.858 C 108.072 26.451,108.345 25.765,108.679 25.333 C 109.012 24.901,109.840 23.546,110.519 22.324 C 111.198 21.101,111.941 19.989,112.171 19.852 C 112.401 19.716,112.962 19.009,113.416 18.282 C 113.871 17.554,114.484 16.759,114.779 16.514 C 115.471 15.940,117.692 12.685,118.582 10.940 C 119.071 9.982,119.275 8.965,119.275 7.493 C 119.275 4.911,119.656 4.350,120.995 4.960 M125.283 42.957 C 125.416 43.161,125.528 43.886,125.530 44.568 C 125.533 45.249,125.832 46.877,126.194 48.185 C 126.557 49.493,126.853 51.030,126.853 51.600 C 126.853 53.998,132.179 53.680,135.203 51.102 C 136.723 49.806,136.738 50.054,136.738 76.603 C 136.738 104.054,136.560 102.142,139.121 102.142 C 141.052 102.142,141.162 102.340,141.176 105.836 C 141.192 109.803,144.145 109.484,108.190 109.397 C 105.003 109.389,105.022 109.412,105.089 105.618 C 105.145 102.439,105.356 102.142,107.553 102.142 C 108.491 102.142,109.437 101.964,109.654 101.746 C 110.204 101.197,110.207 74.570,109.658 70.446 C 109.342 68.069,109.355 66.767,109.730 63.654 C 109.986 61.536,110.199 57.801,110.204 55.354 L 110.214 50.906 111.149 50.799 C 111.664 50.740,112.331 50.898,112.632 51.150 C 113.866 52.181,117.949 53.507,118.878 53.178 C 119.888 52.821,119.918 52.457,119.438 46.452 C 119.149 42.834,119.260 42.626,121.588 42.417 C 123.438 42.251,124.968 42.475,125.283 42.957 M202.192 42.696 C 203.773 42.933,204.015 44.413,203.130 48.435 C 202.565 51.004,202.507 52.929,202.987 53.226 C 203.391 53.476,209.777 51.512,210.063 51.050 C 210.394 50.513,211.495 50.716,211.850 51.379 C 212.076 51.802,212.191 60.370,212.191 76.879 C 212.191 104.562,211.970 102.142,214.501 102.142 C 216.671 102.142,217.731 105.677,216.422 108.551 L 216.039 109.390 198.503 109.390 L 180.966 109.390 180.768 108.649 C 180.466 107.522,180.532 103.356,180.860 102.838 C 181.022 102.582,181.925 102.310,182.914 102.220 C 183.885 102.131,184.864 101.911,185.091 101.730 C 185.414 101.473,185.502 95.978,185.502 76.256 C 185.502 59.560,185.615 51.040,185.838 50.903 C 186.022 50.789,187.278 51.220,188.630 51.862 C 191.160 53.062,195.092 53.792,195.497 53.136 C 195.607 52.959,195.795 51.346,195.916 49.553 C 196.037 47.760,196.290 45.997,196.480 45.634 C 196.669 45.272,196.792 44.490,196.753 43.898 C 196.647 42.261,197.720 42.024,202.192 42.696 M271.417 42.500 C 273.210 42.505,274.302 43.466,273.986 44.760 C 272.314 51.590,272.550 53.781,274.881 53.089 C 276.608 52.576,279.806 51.381,280.731 50.903 C 282.466 50.006,282.407 49.105,282.382 76.100 C 282.357 104.241,282.147 102.142,284.986 102.142 C 287.674 102.142,287.931 102.439,288.040 105.675 C 288.181 109.844,289.957 109.470,269.841 109.497 C 249.820 109.524,251.730 109.943,251.730 105.530 C 251.730 102.504,252.013 102.142,254.376 102.142 C 256.074 102.142,256.047 102.585,255.991 75.923 C 255.962 62.235,256.029 50.945,256.140 50.834 C 256.250 50.724,257.120 51.012,258.072 51.475 C 265.240 54.961,266.360 54.040,266.962 44.165 C 267.057 42.605,267.803 42.043,269.357 42.360 C 269.720 42.435,270.647 42.497,271.417 42.500 M305.901 117.285 C 307.334 117.473,309.210 117.628,310.069 117.628 C 311.042 117.628,312.296 117.937,313.394 118.448 C 314.363 118.899,315.570 119.270,316.076 119.272 C 316.581 119.274,317.552 119.559,318.233 119.907 C 318.914 120.254,320.021 120.641,320.694 120.768 C 321.366 120.894,322.249 121.246,322.655 121.550 C 323.061 121.854,324.357 122.593,325.535 123.193 C 332.232 126.604,336.433 130.170,343.044 138.056 C 344.502 139.795,344.513 139.811,345.265 141.376 C 345.650 142.177,346.331 143.427,346.777 144.152 C 347.223 144.876,347.825 145.988,348.115 146.623 C 349.519 149.695,349.858 150.509,350.245 151.730 C 350.475 152.455,350.775 153.196,350.913 153.377 C 351.051 153.558,351.391 154.819,351.670 156.178 C 351.949 157.537,352.373 159.094,352.612 159.638 C 352.966 160.441,353.066 170.496,353.143 213.233 C 353.225 258.208,353.307 265.895,353.707 266.228 C 354.054 266.516,359.542 266.630,374.930 266.669 C 398.202 266.728,397.047 266.592,395.313 269.073 C 394.697 269.954,394.098 270.929,393.981 271.240 C 393.865 271.550,393.119 272.811,392.324 274.041 C 391.529 275.270,390.091 277.611,389.128 279.242 C 388.166 280.873,387.030 282.627,386.605 283.139 C 386.180 283.651,385.832 284.208,385.832 284.377 C 385.832 284.546,384.854 286.117,383.658 287.868 C 382.463 289.619,381.400 291.286,381.296 291.572 C 381.192 291.858,380.762 292.511,380.339 293.024 C 379.917 293.536,379.572 294.108,379.572 294.294 C 379.572 294.481,379.144 295.174,378.621 295.834 C 377.448 297.316,375.791 299.958,375.100 301.446 C 374.815 302.061,373.999 303.352,373.288 304.315 C 372.576 305.279,371.993 306.162,371.993 306.277 C 371.993 306.393,370.898 308.141,369.559 310.163 C 368.221 312.185,366.923 314.240,366.676 314.731 C 365.858 316.358,363.305 320.408,362.254 321.746 C 361.685 322.471,360.955 323.526,360.632 324.089 C 359.774 325.585,364.220 325.528,246.787 325.555 C 188.163 325.568,139.534 325.681,138.723 325.805 C 137.912 325.928,135.762 325.927,133.946 325.802 C 128.646 325.437,87.796 325.494,86.813 325.868 C 85.710 326.287,79.709 326.293,78.612 325.876 C 78.113 325.686,70.349 325.543,59.436 325.521 C 49.350 325.502,40.751 325.354,40.328 325.193 C 39.685 324.949,35.914 319.754,35.914 319.114 C 35.914 319.006,35.319 318.111,34.591 317.126 C 33.863 316.140,33.113 314.923,32.925 314.421 C 32.640 313.663,29.794 309.052,28.904 307.908 C 28.764 307.727,28.184 306.837,27.617 305.931 C 27.050 305.025,25.963 303.320,25.201 302.142 C 23.599 299.665,21.355 296.088,17.969 290.610 C 17.577 289.975,16.534 288.344,15.651 286.985 C 14.768 285.626,13.724 283.995,13.332 283.361 C 12.939 282.727,11.966 281.165,11.169 279.890 C 10.372 278.615,9.572 277.333,9.390 277.041 C 9.209 276.748,8.576 275.814,7.983 274.965 C 7.390 274.117,6.610 272.878,6.250 272.214 C 5.415 270.674,4.966 269.950,4.009 268.601 C 2.514 266.494,1.660 266.575,25.436 266.588 C 37.216 266.595,46.916 266.538,46.991 266.463 C 47.066 266.388,47.133 244.768,47.139 218.419 C 47.145 192.069,47.285 168.731,47.448 166.557 C 47.787 162.054,48.854 155.711,49.379 155.078 C 49.573 154.844,49.944 153.746,50.202 152.637 C 50.461 151.529,50.910 150.282,51.201 149.867 C 51.492 149.452,51.730 148.829,51.730 148.483 C 51.730 148.137,52.063 147.319,52.471 146.666 C 53.609 144.845,53.908 144.308,54.980 142.175 C 55.527 141.087,56.557 139.593,57.270 138.853 C 57.983 138.114,58.742 137.180,58.957 136.778 C 59.634 135.514,63.516 131.442,65.818 129.583 C 70.573 125.741,72.680 124.319,75.906 122.775 C 80.268 120.686,82.895 119.588,84.020 119.383 C 84.473 119.301,85.823 118.935,87.019 118.570 C 93.022 116.738,88.985 116.798,200.659 116.873 C 269.518 116.919,304.152 117.054,305.901 117.285 M273.970 178.801 C 273.608 178.900,273.089 179.159,272.817 179.377 C 272.074 179.973,270.568 180.560,269.782 180.560 C 269.399 180.560,267.783 181.227,266.193 182.043 C 264.602 182.858,262.870 183.526,262.344 183.526 C 261.789 183.526,261.124 183.817,260.759 184.221 C 260.414 184.603,259.287 185.342,258.255 185.864 C 257.223 186.385,255.741 187.263,254.960 187.815 C 254.180 188.367,253.175 189.074,252.726 189.385 C 252.278 189.696,250.872 190.951,249.602 192.175 C 248.332 193.398,247.107 194.399,246.879 194.399 C 246.651 194.399,245.659 195.103,244.673 195.964 C 242.331 198.010,239.767 200.001,238.416 200.824 C 236.459 202.015,235.434 202.742,234.432 203.650 C 232.639 205.274,227.959 208.262,225.740 209.199 C 218.924 212.077,218.028 212.285,213.674 211.988 C 208.023 211.603,201.149 206.746,194.144 198.188 C 191.339 194.761,188.144 191.137,186.573 189.600 C 185.622 188.669,184.843 187.750,184.843 187.557 C 184.843 187.153,181.748 185.173,181.115 185.173 C 180.882 185.173,180.519 185.000,180.307 184.788 C 180.014 184.495,179.509 184.502,178.182 184.818 C 176.623 185.190,174.508 185.180,170.057 184.779 C 168.875 184.672,168.732 184.806,167.866 186.820 C 167.594 187.455,167.234 188.196,167.067 188.468 C 166.900 188.740,166.292 190.074,165.716 191.433 C 165.140 192.792,164.395 194.433,164.061 195.078 C 163.727 195.723,163.362 196.909,163.249 197.714 C 163.135 198.518,162.758 199.871,162.411 200.720 C 162.064 201.569,161.774 202.607,161.768 203.026 C 161.763 203.446,161.459 204.605,161.093 205.601 C 160.728 206.598,160.219 208.533,159.961 209.902 C 159.704 211.271,159.266 212.934,158.989 213.598 C 158.711 214.262,158.484 215.270,158.484 215.837 C 158.484 216.405,158.263 217.336,157.992 217.907 C 157.529 218.882,156.728 221.404,155.672 225.206 C 155.162 227.042,154.095 229.388,152.021 233.237 C 147.000 242.554,138.214 241.935,133.897 231.960 C 132.806 229.439,130.148 221.296,130.148 220.474 C 130.148 220.075,129.922 219.206,129.645 218.544 C 129.368 217.882,128.921 215.866,128.650 214.064 C 128.379 212.263,128.073 210.652,127.970 210.485 C 127.867 210.317,127.438 208.743,127.018 206.985 C 126.598 205.227,126.096 203.196,125.903 202.471 C 125.709 201.746,125.548 200.640,125.543 200.013 C 125.535 198.823,124.331 194.870,123.030 191.763 C 122.613 190.766,122.171 189.580,122.049 189.127 C 120.603 183.784,111.577 180.853,108.392 184.691 C 108.172 184.956,107.848 185.173,107.672 185.173 C 107.145 185.173,103.544 188.070,99.957 191.381 C 88.932 201.556,83.963 203.835,76.113 202.321 C 75.070 202.120,74.560 202.149,74.389 202.418 C 73.735 203.446,74.110 261.248,74.772 261.603 C 76.097 262.312,325.335 262.053,325.979 261.341 C 326.933 260.287,326.801 204.724,325.841 203.504 C 325.408 202.954,324.835 202.635,324.276 202.634 C 323.791 202.633,323.023 202.437,322.570 202.199 C 321.853 201.823,316.723 199.088,314.333 197.809 C 313.880 197.567,313.407 197.367,313.282 197.366 C 313.158 197.365,312.571 196.922,311.979 196.381 C 311.388 195.841,310.378 195.150,309.735 194.846 C 309.092 194.541,308.196 194.039,307.743 193.730 C 305.391 192.122,302.042 190.061,301.365 189.804 C 300.942 189.643,300.387 189.302,300.131 189.046 C 299.875 188.790,299.279 188.370,298.806 188.112 C 297.507 187.404,294.889 185.904,293.410 185.021 C 292.685 184.587,291.330 183.848,290.398 183.378 C 289.466 182.907,288.196 182.178,287.575 181.757 C 286.955 181.336,286.012 180.883,285.480 180.750 C 284.949 180.617,284.003 180.120,283.378 179.644 C 282.241 178.779,276.077 178.227,273.970 178.801 " stroke="none" fill="#fbfbfb" fill-rule="evenodd"></path></g></svg>